<svg xmlns="http://www.w3.org/2000/svg" width="109" height="41" viewBox="0 0 109 41">
  <metadata><?xpacket begin="﻿" id="W5M0MpCehiHzreSzNTczkc9d"?>
<x:xmpmeta xmlns:x="adobe:ns:meta/" x:xmptk="Adobe XMP Core 5.6-c138 79.159824, 2016/09/14-01:09:01        ">
   <rdf:RDF xmlns:rdf="http://www.w3.org/1999/02/22-rdf-syntax-ns#">
      <rdf:Description rdf:about=""/>
   </rdf:RDF>
</x:xmpmeta>
                                                                                                    
                                                                                                    
                                                                                                    
                                                                                                    
                                                                                                    
                                                                                                    
                                                                                                    
                                                                                                    
                                                                                                    
                                                                                                    
                                                                                                    
                                                                                                    
                                                                                                    
                                                                                                    
                                                                                                    
                                                                                                    
                                                                                                    
                                                                                                    
                                                                                                    
                                                                                                    
                           
<?xpacket end="w"?></metadata>
<defs>
    <style>
      .cls-1 {
        fill: #272928;
        fill-rule: evenodd;
      }
    </style>
  </defs>
  <path id="Shape_9_copy_2" data-name="Shape 9 copy 2" class="cls-1" d="M53.5,32.826A10.618,10.618,0,0,1,43,22.091a10.5,10.5,0,1,1,21,0A10.618,10.618,0,0,1,53.5,32.826Zm0-20.448A9.715,9.715,0,1,0,63,22.091,9.6,9.6,0,0,0,53.5,12.379Zm0,14.569a0.507,0.507,0,0,1-.5-0.511V20.558a0.5,0.5,0,1,1,1,0v5.879A0.507,0.507,0,0,1,53.5,26.948Zm0-9.457A0.511,0.511,0,1,1,53,18,0.506,0.506,0,0,1,53.5,17.49Zm0,1.278A0.767,0.767,0,1,1,54.25,18,0.745,0.745,0,0,1,53.5,18.768Zm0-1.022a0.256,0.256,0,1,0,.25.256A0.239,0.239,0,0,0,53.5,17.746Z"/>
</svg>
