<?xml version="1.0" encoding="UTF-8"?>
<!DOCTYPE svg PUBLIC "-//W3C//DTD SVG 1.1//EN" "http://www.w3.org/Graphics/SVG/1.1/DTD/svg11.dtd">
<svg version="1.2" width="9.88mm" height="9.88mm" viewBox="0 0 988 988" preserveAspectRatio="xMidYMid" fill-rule="evenodd" stroke-width="28.222" stroke-linejoin="round" xmlns="http://www.w3.org/2000/svg" xmlns:ooo="http://xml.openoffice.org/svg/export" xmlns:xlink="http://www.w3.org/1999/xlink" xmlns:presentation="http://sun.com/xmlns/staroffice/presentation" xmlns:smil="http://www.w3.org/2001/SMIL20/" xmlns:anim="urn:oasis:names:tc:opendocument:xmlns:animation:1.0" xml:space="preserve">
 <defs class="ClipPathGroup">
  <clipPath id="presentation_clip_path" clipPathUnits="userSpaceOnUse">
   <rect x="0" y="0" width="988" height="988"/>
  </clipPath>
  <clipPath id="presentation_clip_path_shrink" clipPathUnits="userSpaceOnUse">
   <rect x="0" y="0" width="987" height="987"/>
  </clipPath>
 </defs>
 <defs class="TextShapeIndex">
  <g ooo:slide="id1" ooo:id-list="id3"/>
 </defs>
 <defs class="EmbeddedBulletChars">
  <g id="bullet-char-template(57356)" transform="scale(0.00048828125,-0.00048828125)">
   <path d="M 580,1141 L 1163,571 580,0 -4,571 580,1141 Z"/>
  </g>
  <g id="bullet-char-template(57354)" transform="scale(0.00048828125,-0.00048828125)">
   <path d="M 8,1128 L 1137,1128 1137,0 8,0 8,1128 Z"/>
  </g>
  <g id="bullet-char-template(10146)" transform="scale(0.00048828125,-0.00048828125)">
   <path d="M 174,0 L 602,739 174,1481 1456,739 174,0 Z M 1358,739 L 309,1346 659,739 1358,739 Z"/>
  </g>
  <g id="bullet-char-template(10132)" transform="scale(0.00048828125,-0.00048828125)">
   <path d="M 2015,739 L 1276,0 717,0 1260,543 174,543 174,936 1260,936 717,1481 1274,1481 2015,739 Z"/>
  </g>
  <g id="bullet-char-template(10007)" transform="scale(0.00048828125,-0.00048828125)">
   <path d="M 0,-2 C -7,14 -16,27 -25,37 L 356,567 C 262,823 215,952 215,954 215,979 228,992 255,992 264,992 276,990 289,987 310,991 331,999 354,1012 L 381,999 492,748 772,1049 836,1024 860,1049 C 881,1039 901,1025 922,1006 886,937 835,863 770,784 769,783 710,716 594,584 L 774,223 C 774,196 753,168 711,139 L 727,119 C 717,90 699,76 672,76 641,76 570,178 457,381 L 164,-76 C 142,-110 111,-127 72,-127 30,-127 9,-110 8,-76 1,-67 -2,-52 -2,-32 -2,-23 -1,-13 0,-2 Z"/>
  </g>
  <g id="bullet-char-template(10004)" transform="scale(0.00048828125,-0.00048828125)">
   <path d="M 285,-33 C 182,-33 111,30 74,156 52,228 41,333 41,471 41,549 55,616 82,672 116,743 169,778 240,778 293,778 328,747 346,684 L 369,508 C 377,444 397,411 428,410 L 1163,1116 C 1174,1127 1196,1133 1229,1133 1271,1133 1292,1118 1292,1087 L 1292,965 C 1292,929 1282,901 1262,881 L 442,47 C 390,-6 338,-33 285,-33 Z"/>
  </g>
  <g id="bullet-char-template(9679)" transform="scale(0.00048828125,-0.00048828125)">
   <path d="M 813,0 C 632,0 489,54 383,161 276,268 223,411 223,592 223,773 276,916 383,1023 489,1130 632,1184 813,1184 992,1184 1136,1130 1245,1023 1353,916 1407,772 1407,592 1407,412 1353,268 1245,161 1136,54 992,0 813,0 Z"/>
  </g>
  <g id="bullet-char-template(8226)" transform="scale(0.00048828125,-0.00048828125)">
   <path d="M 346,457 C 273,457 209,483 155,535 101,586 74,649 74,723 74,796 101,859 155,911 209,963 273,989 346,989 419,989 480,963 531,910 582,859 608,796 608,723 608,648 583,586 532,535 482,483 420,457 346,457 Z"/>
  </g>
  <g id="bullet-char-template(8211)" transform="scale(0.00048828125,-0.00048828125)">
   <path d="M -4,459 L 1135,459 1135,606 -4,606 -4,459 Z"/>
  </g>
  <g id="bullet-char-template(61548)" transform="scale(0.00048828125,-0.00048828125)">
   <path d="M 173,740 C 173,903 231,1043 346,1159 462,1274 601,1332 765,1332 928,1332 1067,1274 1183,1159 1299,1043 1357,903 1357,740 1357,577 1299,437 1183,322 1067,206 928,148 765,148 601,148 462,206 346,322 231,437 173,577 173,740 Z"/>
  </g>
 </defs>
 <defs class="TextEmbeddedBitmaps"/>
 <g>
  <g id="id2" class="Master_Slide">
   <g id="bg-id2" class="Background"/>
   <g id="bo-id2" class="BackgroundObjects"/>
  </g>
 </g>
 <g class="SlideGroup">
  <g>
   <g id="container-id1">
    <g id="id1" class="Slide" clip-path="url(#presentation_clip_path)">
     <g class="Page">
      <g class="com.sun.star.drawing.ClosedBezierShape">
       <g id="id3">
        <rect class="BoundingBox" stroke="none" fill="none" x="0" y="0" width="990" height="990"/>
        <path fill="rgb(27,176,104)" stroke="none" d="M 546,0 C 528,0 512,1 494,4 476,1 461,0 442,0 367,1 302,19 237,56 189,84 153,115 119,158 118,159 117,160 117,160 L 117,160 C 99,182 85,202 71,227 63,240 57,251 51,265 L 51,265 C 50,266 50,267 50,267 36,296 27,321 19,351 18,353 18,354 18,356 5,404 0,445 0,494 0,570 13,634 42,704 L 42,704 C 42,705 42,706 43,706 L 43,706 C 51,726 59,743 70,761 81,779 90,794 103,811 L 103,811 C 104,812 104,813 105,814 130,847 155,872 187,898 188,899 189,899 190,900 207,913 222,923 240,934 304,971 368,988 442,989 461,989 476,988 494,985 512,988 528,989 546,989 790,989 989,767 989,494 989,222 790,0 546,0 Z M 363,44 C 358,47 352,50 346,54 343,55 340,57 337,59 332,62 327,65 323,68 L 289,68 289,68 C 316,56 340,48 369,42 367,43 365,44 363,44 Z M 188,784 L 126,784 C 116,771 109,759 101,745 95,735 90,726 85,716 L 151,716 C 154,722 157,728 160,734 161,736 162,739 163,741 167,748 171,755 175,762 176,764 177,767 179,769 182,774 185,779 188,784 Z M 78,290 L 144,290 C 141,297 138,305 135,312 135,315 134,317 133,319 131,326 128,333 126,341 L 58,341 C 64,323 70,307 78,290 Z M 35,494 C 35,483 35,472 36,460 L 105,460 105,461 C 105,472 104,483 104,494 104,500 104,506 104,511 L 35,511 C 35,506 35,500 35,494 Z M 107,546 C 107,553 108,560 109,567 L 109,568 C 110,578 112,587 113,597 L 45,597 C 41,579 39,563 37,545 L 106,545 107,546 Z M 117,375 C 117,377 116,379 116,381 116,383 115,386 115,388 113,399 111,409 109,420 109,421 109,421 109,422 109,423 109,425 109,426 L 40,426 C 42,408 45,393 49,375 L 117,375 Z M 121,631 C 122,633 122,635 123,637 123,638 123,639 123,639 126,650 129,660 133,670 134,672 134,674 135,676 136,678 136,680 137,682 L 70,682 C 63,664 58,649 53,631 L 121,631 Z M 179,220 C 177,222 176,224 175,227 171,234 167,240 163,247 162,250 161,252 160,255 159,255 159,255 159,256 L 94,256 C 96,252 98,248 100,245 113,224 124,207 139,187 L 200,187 C 198,191 196,193 194,197 189,204 184,212 179,220 Z M 230,102 L 277,102 C 273,106 269,110 265,114 261,117 258,120 254,124 251,127 248,130 244,134 241,138 238,141 235,144 232,147 229,151 227,154 L 169,154 C 189,134 207,118 230,102 Z M 153,818 L 213,818 C 214,821 217,824 218,826 224,832 229,839 235,845 238,848 241,852 244,855 247,859 251,862 254,865 256,867 257,868 258,870 L 206,870 C 186,853 170,838 153,818 Z M 369,947 L 369,947 C 328,939 295,926 259,905 258,905 257,904 256,904 L 298,904 C 301,905 303,907 305,909 309,911 312,914 316,916 323,921 330,926 337,930 340,932 343,933 346,935 352,939 358,942 363,945 365,945 367,946 368,947 L 369,947 Z M 546,955 C 532,955 520,954 506,952 L 499,952 C 498,951 497,951 496,951 490,950 484,949 478,948 L 477,948 C 471,947 465,946 460,944 459,944 458,944 457,944 452,942 447,941 442,939 L 437,938 C 432,936 428,935 424,934 420,932 417,931 413,929 411,929 408,928 406,927 390,920 378,913 363,905 294,865 245,816 206,748 199,736 194,726 188,714 188,713 187,712 187,711 184,706 182,701 180,695 179,693 178,691 177,689 175,685 173,680 172,676 L 169,668 C 167,664 166,660 165,656 164,653 163,650 162,647 161,644 159,640 158,636 157,632 157,629 156,626 155,622 154,619 153,615 152,612 151,608 150,605 150,601 149,598 148,594 148,590 147,587 146,583 146,580 145,576 145,572 144,568 144,565 143,562 142,558 142,553 142,549 141,546 141,543 141,540 140,535 140,530 140,525 140,522 139,520 139,517 139,510 139,502 139,495 139,487 139,480 140,472 140,469 140,467 140,464 140,459 141,454 141,450 141,446 142,443 142,440 143,436 143,432 144,428 144,424 145,421 145,417 146,414 146,410 147,406 147,402 148,399 149,395 149,392 150,388 151,384 152,381 153,377 153,374 154,371 155,367 156,363 157,360 158,357 159,353 160,350 161,346 162,342 163,339 164,336 165,333 166,329 168,325 169,322 L 172,313 C 174,309 176,305 178,301 178,298 179,296 180,294 183,289 185,283 188,278 188,277 188,276 189,275 195,263 200,253 207,241 246,173 295,124 363,84 378,76 391,69 406,63 409,62 411,61 413,60 417,59 420,57 424,56 428,54 433,53 437,52 L 441,49 C 447,48 452,47 457,45 458,45 459,45 460,44 465,43 471,42 477,41 477,41 478,41 478,40 484,39 490,38 496,38 L 496,38 C 497,37 498,37 499,37 L 506,36 506,36 C 520,35 532,34 546,34 771,34 954,240 954,494 954,748 771,955 546,955 Z M 237,494 C 237,484 237,473 238,462 L 238,461 C 238,458 238,455 236,452 234,449 232,447 230,446 227,444 224,444 221,444 218,444 215,444 212,446 210,447 208,449 206,452 205,455 204,457 204,460 203,471 202,483 202,494 L 202,495 C 202,498 203,500 205,503 206,506 208,508 211,509 214,511 216,512 219,512 L 220,512 220,512 C 223,512 226,511 228,509 231,508 233,506 235,503 236,500 237,497 237,494 Z M 844,397 C 844,399 845,400 845,401 847,404 849,406 852,408 854,409 857,410 860,410 L 860,410 C 862,410 863,410 865,409 866,409 868,409 869,408 872,406 874,404 876,401 877,399 878,396 878,393 878,391 878,390 877,389 874,377 871,366 867,355 867,354 866,353 866,352 864,350 862,348 859,346 857,344 854,344 851,344 849,344 847,344 845,345 844,345 843,345 842,346 839,347 837,349 836,352 834,355 834,357 834,361 834,363 834,364 835,366 838,376 841,387 844,397 Z M 249,591 C 249,589 248,588 247,587 246,584 244,582 241,580 238,579 236,578 232,578 231,578 230,578 228,579 L 228,579 C 226,579 225,580 223,580 221,582 219,584 217,587 216,589 215,592 215,595 215,597 215,598 215,599 218,611 222,622 226,633 226,634 226,635 227,636 228,639 230,641 233,642 236,644 239,645 242,645 L 242,645 242,645 C 244,645 246,644 248,644 L 248,644 C 249,643 250,643 251,642 253,641 255,639 257,636 258,633 259,631 259,628 259,626 259,624 258,622 255,612 252,601 249,591 Z M 772,733 C 765,742 758,750 750,757 749,758 748,760 748,761 746,764 745,766 745,769 745,772 746,775 748,778 748,779 749,780 750,781 752,782 753,783 754,784 757,785 759,786 763,786 L 763,786 C 766,786 769,786 771,784 773,783 774,782 775,781 784,772 791,764 799,755 L 799,755 C 800,754 800,753 801,752 802,750 803,747 803,744 803,741 802,738 801,736 800,734 798,732 796,731 L 796,731 C 796,730 795,730 795,729 792,728 789,727 786,727 783,727 780,728 777,729 775,731 774,732 772,733 Z M 819,261 C 812,251 805,241 798,232 796,231 795,229 793,228 790,227 788,226 784,226 781,226 778,227 775,228 775,229 774,229 773,230 772,231 770,233 769,235 768,237 767,240 767,243 767,246 768,249 769,251 770,252 770,253 771,254 L 771,254 C 778,263 784,270 790,280 L 790,280 C 792,282 794,283 796,285 799,286 802,287 805,287 L 805,287 805,287 C 808,287 811,286 814,285 814,285 814,284 815,284 L 815,284 C 817,283 819,281 820,279 822,276 822,273 822,270 822,267 822,264 820,262 820,261 820,261 819,261 Z M 717,161 C 713,158 709,156 705,154 698,150 693,147 686,143 L 686,143 C 683,142 681,142 678,142 675,142 672,142 670,144 667,146 665,148 663,150 663,151 663,151 663,151 L 663,151 C 662,153 661,156 661,159 661,162 662,164 663,167 665,170 667,172 669,173 670,173 670,174 670,174 677,177 682,180 688,183 692,185 695,187 699,190 L 699,190 C 702,192 705,192 708,192 711,192 714,192 717,190 719,189 721,187 723,185 723,184 723,184 723,184 725,181 725,179 725,175 725,172 725,170 723,167 722,164 720,163 717,161 Z M 873,477 C 870,477 867,478 865,479 862,481 860,483 858,486 856,489 856,491 856,495 L 856,495 C 856,505 855,516 854,526 L 854,527 C 854,530 855,533 857,536 858,538 860,540 863,542 865,543 868,544 870,544 L 872,544 872,544 C 875,544 878,543 881,542 883,540 885,538 887,536 888,533 889,531 889,528 890,517 891,506 891,495 L 891,493 891,493 C 891,490 890,488 888,485 887,482 885,481 882,479 879,477 877,477 874,477 873,477 873,477 873,477 Z M 857,610 C 855,609 853,609 851,609 848,609 845,610 843,611 840,613 838,615 836,618 836,619 835,620 835,621 831,631 827,641 823,651 822,653 822,655 822,658 822,661 822,663 824,666 826,669 828,671 830,672 833,674 836,675 839,675 L 839,675 C 842,675 845,674 848,672 851,671 853,669 854,666 855,665 855,665 855,664 860,654 864,643 868,631 L 868,631 C 868,630 869,628 869,626 869,623 868,620 866,618 865,615 863,613 860,611 859,611 858,610 857,610 Z M 672,814 C 662,819 653,823 642,827 L 642,827 C 641,827 641,828 640,828 637,830 635,832 634,834 632,837 631,840 631,843 631,845 632,847 632,849 L 632,849 C 633,850 633,851 634,851 635,854 637,856 640,858 643,859 645,860 649,860 L 649,860 649,860 C 651,860 653,860 655,859 L 655,859 C 667,855 677,850 688,845 L 688,845 C 688,844 689,844 689,844 692,843 694,841 695,838 697,835 697,833 697,830 697,827 697,824 695,822 695,821 695,821 695,821 693,818 691,816 689,814 686,813 683,812 680,812 677,812 675,813 672,814 Z M 422,815 C 416,812 411,809 406,806 401,804 398,801 394,799 L 394,799 C 393,799 393,798 393,798 390,797 387,796 384,796 381,796 378,797 375,798 373,800 371,801 370,804 L 370,804 C 369,804 369,804 369,805 368,807 367,810 367,813 367,816 368,819 369,821 371,824 372,826 375,827 380,830 384,833 389,836 395,839 400,842 406,845 409,846 411,847 414,847 L 414,847 414,847 C 417,847 420,846 423,845 425,843 427,841 429,838 L 429,838 429,838 C 431,835 431,833 431,830 431,827 431,824 429,821 427,819 425,817 423,815 422,815 422,815 422,815 Z M 318,207 C 309,216 302,224 294,233 294,234 293,235 292,236 291,238 290,241 290,244 290,247 291,250 292,253 294,254 295,256 297,257 297,258 298,258 299,259 302,260 304,261 308,261 311,261 313,260 316,259 318,258 320,257 321,255 328,247 335,239 343,231 344,230 345,229 346,227 347,225 348,222 348,219 348,216 347,213 346,211 345,209 344,208 343,207 342,206 341,205 339,204 337,203 334,202 331,202 327,202 325,203 322,204 320,205 319,206 318,207 Z M 261,315 C 259,314 257,313 254,313 251,313 248,314 245,316 243,317 241,319 239,322 239,323 238,323 238,324 233,334 229,345 225,357 224,358 224,360 224,362 224,365 225,368 226,370 228,373 230,375 233,377 234,377 235,378 236,378 L 236,378 C 238,379 239,379 241,379 L 242,379 242,379 242,379 C 245,379 248,378 250,377 253,375 255,373 257,370 257,369 258,369 258,367 262,357 266,347 270,337 271,335 271,333 271,331 271,327 271,325 269,322 267,319 265,317 263,316 262,315 262,315 261,315 Z M 582,112 C 570,111 559,110 546,110 L 546,110 546,110 C 543,110 540,111 537,113 534,114 533,116 531,119 529,122 529,124 529,127 L 529,127 C 529,130 530,133 531,136 533,138 535,140 538,142 540,144 543,144 546,144 L 546,144 C 557,144 568,145 578,146 579,146 579,146 580,146 583,146 585,145 588,144 591,142 593,140 594,138 596,135 596,132 596,129 596,126 596,123 594,121 593,118 591,116 588,114 586,113 584,113 582,112 Z M 302,709 C 300,707 299,705 296,704 293,702 291,701 287,701 284,701 281,702 279,704 278,704 278,704 278,704 275,706 274,707 272,710 271,713 270,715 270,718 270,721 271,724 272,727 273,727 273,727 273,728 280,738 287,747 295,756 L 295,756 C 296,758 297,759 299,760 302,762 305,763 308,763 L 308,763 308,763 C 311,763 314,762 316,760 317,760 318,759 319,759 321,757 322,756 323,754 325,751 325,748 325,745 325,742 325,740 323,737 323,736 322,735 321,735 315,726 308,718 302,709 Z M 439,130 C 427,134 417,138 405,144 L 404,145 C 402,146 400,148 398,151 397,153 396,156 396,159 396,162 396,164 398,167 L 398,167 398,168 C 400,170 402,172 404,174 407,176 410,176 413,176 L 413,176 C 416,176 418,176 421,174 431,169 440,166 451,162 452,161 453,161 453,160 456,159 458,157 460,154 461,151 462,149 462,146 462,143 462,142 461,140 L 461,140 C 461,139 460,138 460,137 458,134 456,132 453,131 451,129 448,128 445,128 443,128 441,129 439,130 Z M 546,844 C 535,844 525,844 514,842 513,842 513,842 512,842 509,842 506,843 503,845 501,846 499,848 497,851 496,853 495,855 495,857 495,858 495,859 495,859 495,862 495,865 497,868 499,870 501,872 503,874 505,875 507,876 510,876 523,878 534,878 546,878 L 546,878 548,878 548,878 C 551,878 554,877 556,876 559,874 561,872 562,870 564,867 565,865 565,862 565,861 565,861 565,861 564,858 564,856 562,853 561,850 559,848 556,847 553,845 550,844 547,844 L 546,844 Z M 682,499 L 682,499 C 683,503 683,506 683,509 683,535 677,558 664,581 658,591 652,599 643,608 L 643,608 C 635,615 628,620 619,625 594,639 570,646 541,646 537,646 534,646 530,645 L 450,645 450,359 539,359 539,359 C 542,359 545,359 548,359 574,359 597,365 620,378 629,383 637,389 645,396 L 645,396 C 653,404 658,412 664,422 677,444 683,466 683,491 683,494 683,497 683,499 L 682,499 Z M 647,501 C 647,498 647,495 647,492 647,471 642,453 632,435 627,428 623,422 618,416 L 618,416 C 612,411 606,407 599,403 581,392 563,387 542,387 538,387 536,387 533,388 L 484,388 484,617 525,617 525,617 C 528,617 531,617 535,617 558,617 578,612 598,600 605,596 610,592 616,587 L 616,587 C 622,581 627,574 632,567 642,548 647,530 647,509 647,506 647,504 647,501 Z M 542,489 L 399,489 399,461 542,461 542,489 Z M 542,555 L 399,555 399,527 542,527 542,555 Z"/>
       </g>
      </g>
     </g>
    </g>
   </g>
  </g>
 </g>
</svg>