<svg xmlns="http://www.w3.org/2000/svg" width="18" height="19" viewBox="0 0 18 19">
  <metadata><?xpacket begin="﻿" id="W5M0MpCehiHzreSzNTczkc9d"?>
<x:xmpmeta xmlns:x="adobe:ns:meta/" x:xmptk="Adobe XMP Core 5.6-c138 79.159824, 2016/09/14-01:09:01        ">
   <rdf:RDF xmlns:rdf="http://www.w3.org/1999/02/22-rdf-syntax-ns#">
      <rdf:Description rdf:about=""/>
   </rdf:RDF>
</x:xmpmeta>
                                                                                                    
                                                                                                    
                                                                                                    
                                                                                                    
                                                                                                    
                                                                                                    
                                                                                                    
                                                                                                    
                                                                                                    
                                                                                                    
                                                                                                    
                                                                                                    
                                                                                                    
                                                                                                    
                                                                                                    
                                                                                                    
                                                                                                    
                                                                                                    
                                                                                                    
                                                                                                    
                           
<?xpacket end="w"?></metadata>
<defs>
    <style>
      .cls-1 {
        fill: #404040;
        fill-rule: evenodd;
      }
    </style>
  </defs>
  <path id="Forma_1_copy" data-name="Forma 1 copy" class="cls-1" d="M16.638,2.477a4.35,4.35,0,0,0-6.575,0l-9.041,9.97a4.13,4.13,0,0,0,0,5.439,3.238,3.238,0,0,0,4.14.634,0.55,0.55,0,0,0,.38-0.181l9.041-9.97a2.753,2.753,0,0,0,0-3.625,2.174,2.174,0,0,0-3.287,0L3.9,12.9a0.689,0.689,0,0,0,0,.906,0.544,0.544,0,0,0,.822,0l7.4-8.157a1.086,1.086,0,0,1,1.644,0,1.375,1.375,0,0,1,0,1.813L5.13,16.98a2.174,2.174,0,0,1-3.287,0,2.753,2.753,0,0,1,0-3.625l9.041-9.972a3.262,3.262,0,0,1,4.932,0,4.13,4.13,0,0,1,0,5.439L7.6,17.885a0.689,0.689,0,0,0,0,.906,0.544,0.544,0,0,0,.822,0l8.219-9.064A5.507,5.507,0,0,0,16.638,2.477Z"/>
</svg>
