<?xml version="1.0" encoding="utf-8"?>
<!-- Generator: Adobe Illustrator 21.0.0, SVG Export Plug-In . SVG Version: 6.00 Build 0)  -->
<svg version="1.1" id="Layer_1" xmlns="http://www.w3.org/2000/svg" xmlns:xlink="http://www.w3.org/1999/xlink" x="0px" y="0px"
	 viewBox="0 0 1280 1257.7" style="enable-background:new 0 0 1280 1257.7;" xml:space="preserve">
<style type="text/css">
	.st0{fill:#1BB168;}
	.st1{fill:#008A6F;}
</style>
<g id="Page-1_15_" sketch:type="MSPage">
	<g id="_x30_1-colour-definition_15_" transform="translate(-342.000000, -340.000000)" sketch:type="MSArtboardGroup">
		<g id="DECENT_15_" transform="translate(342.000000, 340.000000)" sketch:type="MSLayerGroup">
			<g id="DECENT-LOGO_15_" sketch:type="MSShapeGroup">
				<path id="Shape_90_" class="st0" d="M234.8,748.9V641.5H367c156.2,0,192.4-79.2,242.5-188.9c52.4-114.7,117.6-257.4,352.9-257.4
					h218.8v107.4H962.4c-166.3,0-205.5,85.9-255.2,194.6C656,609.3,592.3,748.9,367,748.9H234.8z"/>
				<path id="Shape_89_" class="st1" d="M239,748.9H131.5V195.1H239V748.9L239,748.9z"/>
				<path id="Shape_88_" class="st1" d="M948.2,748.9c-222.6,0-285.5-139.7-336-252c-48.9-108.6-87.4-194.3-250.4-194.3H131.5V195.1
					h230.3c232.4,0,296.7,142.9,348.3,257.7c49.3,109.5,84.9,188.7,238.1,188.7h233v107.4H948.2z"/>
				<path id="Shape_87_" class="st1" d="M297.5,943.4c-0.6-24.9-10.4-45.9-29.5-62.9c-19.1-17-41.6-25.4-67.5-25.4h-47.1v182.7h53.5
					c25.5,0,47.2-9.4,65-28.1C289.7,991,298.3,968.9,297.5,943.4L297.5,943.4z M320.3,946.6c0,30.8-11.1,57.2-33.2,79.2
					c-22.1,22-48.5,33-79.1,33h-76.3V834h65.2c35.9,0,65.4,10.7,88.6,32.2C308.7,887.6,320.3,914.4,320.3,946.6L320.3,946.6z"/>
				<path id="Shape_86_" class="st1" d="M475.1,1058.8h-64.6c-17,0-30.9-4.8-41.8-14.3c-10.9-9.6-16.4-23.2-16.4-40.9V889.3
					c0-17.7,5.5-31.4,16.4-40.9c10.9-9.6,24.8-14.3,41.8-14.3h64.6v21h-64.6c-11.7,0-19.9,2.3-24.6,7c-7.4,7.8-11.1,15.6-11.1,23.4
					V934H450v21.3h-75.1v52c0,7.8,3.7,15.6,11.1,23.4c4.7,4.7,12.9,7,24.6,7h64.6V1058.8L475.1,1058.8z"/>
				<path id="Shape_85_" class="st0" d="M1181.2,855h-51v203.2h-22.5V855H1057v-21h124.2V855L1181.2,855z M1029.7,1058.2h-25.1
					L875.7,862.9v195.3h-23.3V833.7h30.3l123.9,188.3V833.7h23L1029.7,1058.2L1029.7,1058.2z M828.9,1058.2h-64.4
					c-16.9,0-30.8-4.8-41.7-14.3c-10.9-9.5-16.3-23.1-16.3-40.8v-114c0-17.7,5.4-31.3,16.3-40.8c10.9-9.5,24.8-14.3,41.7-14.3h64.4
					v21h-64.4c-11.7,0-19.8,2.3-24.5,7c-7.4,7.8-11.1,15.6-11.1,23.3v48.4h74.9V955h-74.9v51.9c0,7.8,3.7,15.5,11.1,23.3
					c4.7,4.7,12.8,7,24.5,7h64.4V1058.2L828.9,1058.2z M691.1,1000.5c-10.3,19.4-24.2,34.5-41.8,45.3
					c-17.6,10.8-37.6,16.4-59.9,16.8c-31.7,0.4-58.8-11-81.5-34.1c-22.6-23.1-34-50.7-34-82.8c0-33,11.4-60.5,34.1-82.5
					c22.2-21.8,49.3-32.6,81.3-32.4c22.3,0.2,42.7,5.9,60.9,17.2c17.5,11.1,31.1,25.9,40.8,44.6h-25.4c-18.7-27-44.7-40.3-78.1-39.9
					c-24.9,0-46.3,9-64.3,27c-18,18-27.3,39.6-27.8,64.9c-0.6,26.2,8.4,48.9,27,68.1c18.6,19.1,40.9,28.7,66.9,28.7
					c15.2,0,29.9-4,44.3-12c13.8-7.6,24.6-17.2,32.4-28.9H691.1L691.1,1000.5z"/>
			</g>
		</g>
	</g>
</g>
</svg>
