<?xml version="1.0" encoding="UTF-8"?>
<svg width="1051px" height="868px" viewBox="0 0 1051 868" version="1.1" xmlns="http://www.w3.org/2000/svg" xmlns:xlink="http://www.w3.org/1999/xlink">
    <!-- Generator: Sketch 50.2 (55047) - http://www.bohemiancoding.com/sketch -->
    <title>decent_logo</title>
    <desc>Created with Sketch.</desc>
    <defs></defs>
    <g id="decent_logo" stroke="none" stroke-width="1" fill="none" fill-rule="evenodd">
        <g id="Logo-Vertical" transform="translate(0.000000, 111.000000)">
            <path d="M221.567385,90.0666942 L74.663444,7.43486976 C41.924745,-10.979819 0.999412302,12.0392577 0.999412302,48.8705438 L0.999412302,214.132284 C0.999412302,250.962616 41.924745,273.982647 74.663444,255.567004 L221.567385,172.936134 C254.307064,154.520491 254.307064,108.482337 221.567385,90.0666942" id="Shape-large" fill="#008A6E"></path>
            <path d="M234.900589,236.037624 L334.6065,179.953794 C360.816853,165.211164 393.578081,183.640167 393.578081,213.124472 L393.578081,325.291178 C393.578081,354.777392 360.816853,373.204487 334.6065,358.461857 L234.900589,302.378981 C208.690236,287.636351 208.690236,250.780254 234.900589,236.037624" id="Shape-small" fill="#1AB14B"></path>
            <path d="M38.7841846,609.342691 L57.8559656,609.342691 C66.3325304,609.342691 74.2184586,608.503882 81.5176683,606.819582 C88.816878,605.138146 95.1336525,602.34593 100.47191,598.445799 C105.806249,594.548531 110.00829,589.426924 113.068238,583.079072 C116.128186,576.733128 117.658159,568.970082 117.658159,559.796615 C117.658159,551.846531 116.128186,544.924203 113.068238,539.036312 C110.00829,533.151284 105.886568,528.294013 100.706989,524.471178 C95.5274102,520.650252 89.4417969,517.782649 82.4589647,515.868368 C75.4731939,513.957905 68.1338249,513.000765 60.445755,513.000765 L38.7841846,513.000765 L38.7841846,609.342691 Z M2.05501594,494.417169 C2.05501594,486.438457 8.69306533,479.970365 16.8836171,479.970365 L57.1497485,479.970365 C70.4895145,479.970365 83.1651818,481.42373 95.1728323,484.327596 C107.181462,487.234324 117.658159,491.938911 126.603903,498.433722 C135.552585,504.937122 142.653937,513.38343 147.912855,523.78219 C153.171773,534.183812 155.801721,546.800312 155.801721,561.63169 C155.801721,574.784494 153.246214,586.368466 148.148913,596.382652 C143.045735,606.400655 136.178484,614.812609 127.547159,621.613743 C118.912895,628.419649 108.946515,633.582289 97.6460616,637.097846 C86.3446282,640.618175 74.4897792,642.374045 62.0952275,642.374045 L16.8836171,642.374045 C8.69306533,642.374045 2.05501594,635.905954 2.05501594,627.927242 L2.05501594,494.417169 Z" id="D" fill="#343739"></path>
            <path d="M207.90321,479.970079 L310.899251,479.970079 C313.730976,479.970079 316.026916,482.206905 316.026916,484.963812 L316.026916,508.006746 C316.026916,510.765562 313.730976,513.000479 310.899251,513.000479 L239.506672,513.000479 L239.506672,543.280651 L306.660968,543.280651 C309.492694,543.280651 311.787654,545.516523 311.787654,548.275339 L311.787654,571.317318 C311.787654,574.075179 309.492694,576.312005 306.660968,576.312005 L239.506672,576.312005 L239.506672,609.342405 L315.138513,609.342405 C317.970238,609.342405 320.265199,611.579231 320.265199,614.338047 L320.265199,637.379072 C320.265199,640.137887 317.970238,642.374713 315.138513,642.374713 L207.90321,642.374713 C205.071485,642.374713 202.776524,640.137887 202.776524,637.379072 L202.776524,484.963812 C202.776524,482.206905 205.071485,479.970079 207.90321,479.970079" id="E" fill="#343739"></path>
            <path d="M484.11649,519.058136 C482.01449,520.730029 478.962379,520.642236 476.987713,518.831972 C474.051182,516.141864 470.68759,513.968975 466.89302,512.313304 C461.634102,510.019221 455.551427,508.873134 448.649893,508.873134 C441.738564,508.873134 435.34245,510.171906 429.456655,512.770403 C423.570859,515.373671 418.46964,519.003742 414.155936,523.668249 C409.837335,528.333711 406.463948,533.874245 404.030878,540.297485 C401.59389,546.719771 400.381273,553.68027 400.381273,561.171347 C400.381273,568.818925 401.59389,575.817594 404.030878,582.160676 C406.463948,588.507574 409.800114,594.012799 414.039376,598.676353 C418.27374,603.343723 423.25644,606.972839 428.988455,609.571336 C434.715573,612.17365 440.877586,613.471468 447.470579,613.471468 C455.003888,613.471468 461.67622,611.945578 467.482677,608.885211 C471.81597,606.601625 475.584094,603.63764 478.783131,599.992301 C480.644175,597.869988 483.867698,597.508317 486.163639,599.177348 L508.013272,615.062248 C510.536456,616.895414 510.920419,620.416698 508.886004,622.756586 C502.455608,630.153189 494.697014,635.774836 485.613162,639.620574 C474.781887,644.207785 463.637173,646.503776 452.17804,646.503776 C439.146816,646.503776 427.141124,644.514108 416.154109,640.539543 C405.167094,636.564024 395.671853,630.867942 387.668385,623.449391 C379.661979,616.034656 373.420626,607.047273 368.948244,596.496783 C364.474882,585.946294 362.237711,574.171466 362.237711,561.171347 C362.237711,548.176953 364.474882,536.397354 368.948244,525.846864 C373.420626,515.294466 379.661979,506.313763 387.668385,498.894257 C395.671853,491.478568 405.167094,485.784395 416.154109,481.805059 C427.141124,477.82954 439.146816,475.839872 452.17804,475.839872 C456.88942,475.839872 461.79278,476.263571 466.89302,477.102381 C471.993259,477.944053 477.018078,479.280996 481.964536,481.116071 C486.910015,482.951146 491.653718,485.399822 496.207398,488.45828 C499.194863,490.467034 501.978593,492.769705 504.561526,495.370111 C506.776168,497.599302 506.563617,501.198836 504.097244,503.161785 L484.11649,519.058136 Z" id="C" fill="#343739"></path>
            <path d="M554.222304,479.970079 L657.44363,479.970079 C660.212667,479.970079 662.457673,482.157283 662.457673,484.855979 L662.457673,508.115533 C662.457673,510.813275 660.212667,513.000479 657.44363,513.000479 L585.937429,513.000479 L585.937429,543.280651 L653.204368,543.280651 C655.973405,543.280651 658.219391,545.468809 658.219391,548.166551 L658.219391,571.426106 C658.219391,574.124802 655.973405,576.312005 653.204368,576.312005 L585.937429,576.312005 L585.937429,609.342405 L661.679953,609.342405 C664.44997,609.342405 666.694976,611.529609 666.694976,614.228305 L666.694976,637.487859 C666.694976,640.186556 664.44997,642.374713 661.679953,642.374713 L554.222304,642.374713 C551.453267,642.374713 549.208261,640.186556 549.208261,637.487859 L549.208261,484.855979 C549.208261,482.157283 551.453267,479.970079 554.222304,479.970079" id="E" fill="#343739"></path>
            <path d="M721.689506,479.970079 L763.871533,479.970079 C765.597407,479.970079 767.198884,480.844197 768.099041,482.278476 L837.517934,592.827682 L837.990052,592.827682 L837.990052,484.797768 C837.990052,482.131517 840.208612,479.970079 842.945326,479.970079 L869.764926,479.970079 C872.50164,479.970079 874.7202,482.131517 874.7202,484.797768 L874.7202,637.54607 C874.7202,640.212321 872.50164,642.374713 869.764926,642.374713 L829.462553,642.374713 C827.739618,642.374713 826.139121,641.50155 825.237984,640.070134 L753.934539,526.763066 L753.464381,526.763066 L753.464381,637.54607 C753.464381,640.212321 751.24582,642.374713 748.509107,642.374713 L721.689506,642.374713 C718.952792,642.374713 716.734232,640.212321 716.734232,637.54607 L716.734232,484.797768 C716.734232,482.131517 718.952792,479.970079 721.689506,479.970079" id="N" fill="#343739"></path>
            <path d="M966.841966,511.624316 L924.335725,511.624316 C921.54318,511.624316 919.279563,509.418981 919.279563,506.700245 L919.279563,484.894055 C919.279563,482.175319 921.54318,479.969984 924.335725,479.969984 L1046.07738,479.969984 C1048.86796,479.969984 1051.13158,482.175319 1051.13158,484.894055 L1051.13158,506.700245 C1051.13158,509.418981 1048.86796,511.624316 1046.07738,511.624316 L1003.57211,511.624316 L1003.57211,637.449593 C1003.57211,640.169283 1001.3085,642.374618 998.516931,642.374618 L971.896169,642.374618 C969.105583,642.374618 966.841966,640.169283 966.841966,637.449593 L966.841966,511.624316 Z" id="T" fill="#343739"></path>
        </g>
    </g>
</svg>