<?xml version="1.0" encoding="UTF-8"?>
<!DOCTYPE svg PUBLIC "-//W3C//DTD SVG 1.1//EN" "http://www.w3.org/Graphics/SVG/1.1/DTD/svg11.dtd">
<svg version="1.2" width="7.76mm" height="7.76mm" viewBox="0 0 776 776" preserveAspectRatio="xMidYMid" fill-rule="evenodd" stroke-width="28.222" stroke-linejoin="round" xmlns="http://www.w3.org/2000/svg" xmlns:ooo="http://xml.openoffice.org/svg/export" xmlns:xlink="http://www.w3.org/1999/xlink" xmlns:presentation="http://sun.com/xmlns/staroffice/presentation" xmlns:smil="http://www.w3.org/2001/SMIL20/" xmlns:anim="urn:oasis:names:tc:opendocument:xmlns:animation:1.0" xml:space="preserve">
 <defs class="ClipPathGroup">
  <clipPath id="presentation_clip_path" clipPathUnits="userSpaceOnUse">
   <rect x="0" y="0" width="776" height="776"/>
  </clipPath>
  <clipPath id="presentation_clip_path_shrink" clipPathUnits="userSpaceOnUse">
   <rect x="0" y="0" width="775" height="775"/>
  </clipPath>
 </defs>
 <defs class="TextShapeIndex">
  <g ooo:slide="id1" ooo:id-list="id3"/>
 </defs>
 <defs class="EmbeddedBulletChars">
  <g id="bullet-char-template(57356)" transform="scale(0.00048828125,-0.00048828125)">
   <path d="M 580,1141 L 1163,571 580,0 -4,571 580,1141 Z"/>
  </g>
  <g id="bullet-char-template(57354)" transform="scale(0.00048828125,-0.00048828125)">
   <path d="M 8,1128 L 1137,1128 1137,0 8,0 8,1128 Z"/>
  </g>
  <g id="bullet-char-template(10146)" transform="scale(0.00048828125,-0.00048828125)">
   <path d="M 174,0 L 602,739 174,1481 1456,739 174,0 Z M 1358,739 L 309,1346 659,739 1358,739 Z"/>
  </g>
  <g id="bullet-char-template(10132)" transform="scale(0.00048828125,-0.00048828125)">
   <path d="M 2015,739 L 1276,0 717,0 1260,543 174,543 174,936 1260,936 717,1481 1274,1481 2015,739 Z"/>
  </g>
  <g id="bullet-char-template(10007)" transform="scale(0.00048828125,-0.00048828125)">
   <path d="M 0,-2 C -7,14 -16,27 -25,37 L 356,567 C 262,823 215,952 215,954 215,979 228,992 255,992 264,992 276,990 289,987 310,991 331,999 354,1012 L 381,999 492,748 772,1049 836,1024 860,1049 C 881,1039 901,1025 922,1006 886,937 835,863 770,784 769,783 710,716 594,584 L 774,223 C 774,196 753,168 711,139 L 727,119 C 717,90 699,76 672,76 641,76 570,178 457,381 L 164,-76 C 142,-110 111,-127 72,-127 30,-127 9,-110 8,-76 1,-67 -2,-52 -2,-32 -2,-23 -1,-13 0,-2 Z"/>
  </g>
  <g id="bullet-char-template(10004)" transform="scale(0.00048828125,-0.00048828125)">
   <path d="M 285,-33 C 182,-33 111,30 74,156 52,228 41,333 41,471 41,549 55,616 82,672 116,743 169,778 240,778 293,778 328,747 346,684 L 369,508 C 377,444 397,411 428,410 L 1163,1116 C 1174,1127 1196,1133 1229,1133 1271,1133 1292,1118 1292,1087 L 1292,965 C 1292,929 1282,901 1262,881 L 442,47 C 390,-6 338,-33 285,-33 Z"/>
  </g>
  <g id="bullet-char-template(9679)" transform="scale(0.00048828125,-0.00048828125)">
   <path d="M 813,0 C 632,0 489,54 383,161 276,268 223,411 223,592 223,773 276,916 383,1023 489,1130 632,1184 813,1184 992,1184 1136,1130 1245,1023 1353,916 1407,772 1407,592 1407,412 1353,268 1245,161 1136,54 992,0 813,0 Z"/>
  </g>
  <g id="bullet-char-template(8226)" transform="scale(0.00048828125,-0.00048828125)">
   <path d="M 346,457 C 273,457 209,483 155,535 101,586 74,649 74,723 74,796 101,859 155,911 209,963 273,989 346,989 419,989 480,963 531,910 582,859 608,796 608,723 608,648 583,586 532,535 482,483 420,457 346,457 Z"/>
  </g>
  <g id="bullet-char-template(8211)" transform="scale(0.00048828125,-0.00048828125)">
   <path d="M -4,459 L 1135,459 1135,606 -4,606 -4,459 Z"/>
  </g>
  <g id="bullet-char-template(61548)" transform="scale(0.00048828125,-0.00048828125)">
   <path d="M 173,740 C 173,903 231,1043 346,1159 462,1274 601,1332 765,1332 928,1332 1067,1274 1183,1159 1299,1043 1357,903 1357,740 1357,577 1299,437 1183,322 1067,206 928,148 765,148 601,148 462,206 346,322 231,437 173,577 173,740 Z"/>
  </g>
 </defs>
 <defs class="TextEmbeddedBitmaps"/>
 <g>
  <g id="id2" class="Master_Slide">
   <g id="bg-id2" class="Background"/>
   <g id="bo-id2" class="BackgroundObjects"/>
  </g>
 </g>
 <g class="SlideGroup">
  <g>
   <g id="container-id1">
    <g id="id1" class="Slide" clip-path="url(#presentation_clip_path)">
     <g class="Page">
      <g class="com.sun.star.drawing.ClosedBezierShape">
       <g id="id3">
        <rect class="BoundingBox" stroke="none" fill="none" x="0" y="0" width="778" height="778"/>
        <path fill="rgb(255,255,255)" stroke="none" d="M 0,389 C 0,317 16,256 52,194 88,132 132,88 194,52 256,16 317,0 389,0 460,0 521,16 583,52 645,88 689,132 725,194 761,256 777,317 777,389 777,460 761,521 725,583 689,645 645,689 583,725 521,761 460,777 389,777 317,777 256,761 195,725 132,689 88,645 52,583 16,521 0,460 0,389 Z M 745,389 C 745,323 730,267 698,210 665,153 624,112 567,80 510,47 454,32 389,32 323,32 267,47 210,80 153,112 112,153 80,210 47,267 32,323 32,389 32,454 47,510 80,567 112,624 153,665 210,698 267,730 323,745 389,745 454,745 510,730 567,697 624,665 665,624 697,567 730,510 745,454 745,389 Z M 142,389 C 142,376 144,366 151,355 157,345 164,337 175,331 185,325 196,322 208,322 220,322 231,325 241,331 252,337 259,345 265,355 271,366 274,376 274,389 274,401 271,411 265,422 259,432 252,440 241,446 231,452 220,455 208,455 196,455 185,452 175,446 164,440 157,432 151,422 144,411 142,401 142,389 Z M 242,389 C 242,382 241,377 238,371 235,366 231,362 225,359 220,356 214,354 208,354 202,354 196,356 191,359 185,362 181,366 178,371 175,377 174,382 174,389 174,395 175,400 178,406 181,411 185,415 191,418 196,422 202,423 208,423 214,423 220,422 225,418 231,415 235,411 238,406 241,400 242,395 242,389 Z M 322,389 C 322,376 325,366 331,356 337,345 345,337 356,331 366,325 376,322 389,322 401,322 411,325 422,331 432,337 440,345 446,356 452,366 455,376 455,389 455,401 452,411 446,422 440,432 432,440 422,446 411,452 401,455 389,455 L 389,455 C 376,455 366,452 356,446 345,440 337,432 331,422 325,411 322,401 322,389 Z M 423,389 C 423,382 422,377 418,371 415,366 411,362 406,359 400,356 395,354 389,354 382,354 377,356 371,359 366,362 362,366 359,371 356,377 354,382 354,389 354,395 356,400 359,406 362,411 366,415 371,418 377,422 382,423 389,423 395,423 400,422 406,418 411,415 415,411 418,406 422,400 423,395 423,389 Z M 503,389 C 503,376 506,366 512,355 518,345 526,337 536,331 547,325 557,322 569,322 582,322 592,325 603,331 613,337 621,345 627,355 633,366 636,376 636,389 636,401 633,411 627,422 621,432 613,440 603,446 592,452 582,455 569,455 557,455 547,452 536,446 526,440 518,432 512,422 506,411 503,401 503,389 Z M 604,389 C 604,382 602,377 599,371 596,366 592,362 587,359 581,356 576,354 569,354 563,354 558,356 552,359 547,362 543,366 540,371 536,377 535,382 535,389 535,395 536,400 540,406 543,411 547,415 552,418 558,422 563,423 569,423 576,423 581,422 587,418 592,415 596,411 599,406 602,400 604,395 604,389 Z M 570,431 C 562,431 555,429 548,425 542,421 537,416 533,409 529,403 527,396 527,388 527,380 529,374 533,367 537,360 542,355 548,351 555,348 562,346 570,346 577,346 584,348 591,351 598,355 602,360 606,367 610,374 612,380 612,388 612,396 610,403 606,409 602,416 598,421 591,425 584,429 577,431 570,431 Z M 386,439 C 377,439 369,437 361,433 352,428 346,422 342,414 337,405 335,397 335,388 335,378 337,370 342,362 346,354 352,348 361,343 369,338 377,336 386,336 396,336 404,338 412,343 420,348 426,354 431,362 436,370 438,378 438,388 438,397 436,405 431,414 426,422 420,428 412,433 404,437 396,439 386,439 Z M 210,439 C 202,439 194,437 187,433 179,429 174,423 169,416 165,408 163,401 163,392 163,383 165,376 169,368 174,361 179,355 187,351 194,347 202,345 210,345 219,345 227,347 234,351 242,355 247,361 252,368 256,376 258,383 258,392 L 258,392 C 258,401 256,408 252,416 247,423 242,429 234,433 227,437 219,439 210,439 Z"/>
       </g>
      </g>
     </g>
    </g>
   </g>
  </g>
 </g>
</svg>