<svg xmlns="http://www.w3.org/2000/svg" width="22" height="22" viewBox="0 0 22 22">
  <metadata><?xpacket begin="﻿" id="W5M0MpCehiHzreSzNTczkc9d"?>
<x:xmpmeta xmlns:x="adobe:ns:meta/" x:xmptk="Adobe XMP Core 5.6-c138 79.159824, 2016/09/14-01:09:01        ">
   <rdf:RDF xmlns:rdf="http://www.w3.org/1999/02/22-rdf-syntax-ns#">
      <rdf:Description rdf:about=""/>
   </rdf:RDF>
</x:xmpmeta>
                                                                                                    
                                                                                                    
                                                                                                    
                                                                                                    
                                                                                                    
                                                                                                    
                                                                                                    
                                                                                                    
                                                                                                    
                                                                                                    
                                                                                                    
                                                                                                    
                                                                                                    
                                                                                                    
                                                                                                    
                                                                                                    
                                                                                                    
                                                                                                    
                                                                                                    
                                                                                                    
                           
<?xpacket end="w"?></metadata>
<defs>
    <style>
      .cls-1 {
        fill: #1bb068;
        fill-rule: evenodd;
      }
    </style>
  </defs>
  <path class="cls-1" d="M11,0A11,11,0,1,1,0,11,11.013,11.013,0,0,1,11,0Zm0,21.1A10.1,10.1,0,1,0,.9,11,10.109,10.109,0,0,0,11,21.1ZM11.037,5.079a0.452,0.452,0,0,1,.452.452v8.345l2.852-2.689a0.452,0.452,0,1,1,.62.657L11.348,15.25l-0.023.02h0a0.45,0.45,0,0,1-.075.05,0.469,0.469,0,0,1-.412.006,0.443,0.443,0,0,1-.094-0.062l-0.019-.017L7.14,11.842a0.451,0.451,0,0,1,.622-0.655l2.823,2.682V5.531A0.451,0.451,0,0,1,11.037,5.079ZM5.645,15.732H16.163a0.451,0.451,0,0,1,0,.9H5.645A0.452,0.452,0,0,1,5.645,15.732Z"/>
</svg>
