<?xml version="1.0" encoding="UTF-8"?>
<svg width="27px" height="26px" viewBox="0 0 27 26" version="1.1" xmlns="http://www.w3.org/2000/svg" xmlns:xlink="http://www.w3.org/1999/xlink">
    <!-- Generator: Sketch 43.1 (39012) - http://www.bohemiancoding.com/sketch -->
    <title>Untitled-1</title>
    <desc>Created with Sketch.</desc>
    <defs></defs>
    <g id="Page-1" stroke="none" stroke-width="1" fill="none" fill-rule="evenodd">
        <g id="Untitled-1" transform="translate(-1.000000, 0.000000)" fill-rule="nonzero" fill="#1BB168">
            <path d="M6.72,25.52 C6.43651222,25.5214214 6.16574302,25.402452 5.9750461,25.1926854 C5.78434919,24.9829188 5.6916473,24.70207 5.72,24.42 L6.51,16.55 L1.25,10.65 C1.01478746,10.3851213 0.93726176,10.0155704 1.04619442,9.67849576 C1.15512708,9.34142111 1.43425972,9.08713171 1.78,9.01 L9.51,7.33 L13.51,0.5 C13.6888989,0.191597828 14.0184657,0.00177186051 14.375,0.00177186051 C14.7315343,0.00177186051 15.0611011,0.191597828 15.24,0.5 L19.24,7.33 L26.97,9.01 C27.3157403,9.08713171 27.5948729,9.34142111 27.7038056,9.67849576 C27.8127382,10.0155704 27.7352125,10.3851213 27.5,10.65 L22.23,16.55 L23.02,24.42 C23.0500462,24.7718897 22.8922501,25.1135332 22.6048637,25.3188092 C22.3174773,25.5240852 21.943124,25.5625485 21.62,25.42 L14.38,22.24 L7.14,25.42 C7.00895167,25.4835181 6.86561137,25.5176467 6.72,25.52 Z" id="Shape"></path>
        </g>
    </g>
</svg>