<svg xmlns="http://www.w3.org/2000/svg" width="22" height="22" viewBox="0 0 22 22">
  <metadata><?xpacket begin="﻿" id="W5M0MpCehiHzreSzNTczkc9d"?>
<x:xmpmeta xmlns:x="adobe:ns:meta/" x:xmptk="Adobe XMP Core 5.6-c138 79.159824, 2016/09/14-01:09:01        ">
   <rdf:RDF xmlns:rdf="http://www.w3.org/1999/02/22-rdf-syntax-ns#">
      <rdf:Description rdf:about=""/>
   </rdf:RDF>
</x:xmpmeta>
                                                                                                    
                                                                                                    
                                                                                                    
                                                                                                    
                                                                                                    
                                                                                                    
                                                                                                    
                                                                                                    
                                                                                                    
                                                                                                    
                                                                                                    
                                                                                                    
                                                                                                    
                                                                                                    
                                                                                                    
                                                                                                    
                                                                                                    
                                                                                                    
                                                                                                    
                                                                                                    
                           
<?xpacket end="w"?></metadata>
<defs>
    <style>
      .cls-1 {
        fill: #1bb068;
        fill-rule: evenodd;
      }
    </style>
  </defs>
  <path class="cls-1" d="M0,11A11,11,0,1,1,11,22,11.013,11.013,0,0,1,0,11Zm21.1,0A10.1,10.1,0,1,0,11,21.1,10.109,10.109,0,0,0,21.1,11ZM4.01,11a1.877,1.877,0,1,1,1.877,1.877A1.879,1.879,0,0,1,4.01,11Zm2.85,0a0.973,0.973,0,1,0-.973.974A0.975,0.975,0,0,0,6.86,11Zm2.267,0A1.876,1.876,0,1,1,11,12.879,1.879,1.879,0,0,1,9.127,11Zm2.85,0a0.974,0.974,0,1,0-.974.974A0.975,0.975,0,0,0,11.977,11Zm2.267,0a1.876,1.876,0,1,1,1.876,1.877A1.878,1.878,0,0,1,14.244,11Zm2.85,0a0.974,0.974,0,1,0-.974.974A0.975,0.975,0,0,0,17.094,11ZM16.125,12.19a1.2,1.2,0,1,1,1.2-1.2A1.2,1.2,0,0,1,16.125,12.19Zm-5.186.251A1.461,1.461,0,1,1,12.4,10.98,1.461,1.461,0,0,1,10.939,12.441Zm-4.985,0A1.342,1.342,0,1,1,7.3,11.1,1.342,1.342,0,0,1,5.954,12.441Z"/>
</svg>
