<?xml version="1.0" encoding="UTF-8"?>
<svg width="85px" height="85px" viewBox="0 0 85 85" version="1.1" xmlns="http://www.w3.org/2000/svg" xmlns:xlink="http://www.w3.org/1999/xlink">
    <!-- Generator: Sketch 43.1 (39012) - http://www.bohemiancoding.com/sketch -->
    <title>Group 3</title>
    <desc>Created with Sketch.</desc>
    <defs></defs>
    <g id="Page-1" stroke="none" stroke-width="1" fill="none" fill-rule="evenodd">
        <g id="Desktop-HD-Copy" transform="translate(-393.000000, -1540.000000)">
            <g id="Group-3" transform="translate(394.000000, 1541.000000)">
                <circle id="Oval-3-Copy-7" stroke="#FFFFFF" stroke-width="2" cx="41.5" cy="41.5" r="41.5"></circle>
                <g id="circular-arrow" transform="translate(17.000000, 19.000000)" fill-rule="nonzero" fill="#FFFFFF">
                    <path d="M23.8392,44.3784375 C14.5544,44.3784375 6.2916,38.4567187 3.276,29.6423437 C3.052,28.99125 3.3978,28.2796875 4.0474,28.0575 C4.6942,27.8325 5.4026,28.1784375 5.6252,28.8323437 C8.2964,36.6384375 15.617,41.8809375 23.8406,41.8809375 C34.4596,41.8809375 43.0976,33.204375 43.0976,22.539375 C43.0976,21.8503125 43.6548,21.2892187 44.3408,21.2892187 C45.0268,21.2892187 45.5826,21.8489062 45.5826,22.539375 C45.5812,34.5810937 35.8288,44.3784375 23.8392,44.3784375 Z" id="Shape"></path>
                    <path d="M3.3404,23.788125 C2.6558,23.788125 2.0986,23.23125 2.0986,22.5407812 C2.0986,10.5004687 11.8524,0.703125 23.8392,0.703125 C33.1212,0.703125 41.384,6.62203125 44.4024,15.4335937 C44.625,16.0846875 44.2806,16.79625 43.631,17.02125 C42.98,17.2434375 42.2744,16.8975 42.0518,16.2464062 C39.3792,8.4403125 32.06,3.1978125 23.8378,3.1978125 C13.2202,3.1978125 4.5808,11.8771875 4.5808,22.5421875 C4.5822,23.2298437 4.0264,23.788125 3.3404,23.788125 Z" id="Shape"></path>
                    <path d="M43.1788,17.341875 C43.057,17.341875 42.931,17.3221875 42.8078,17.2842188 L34.1796,14.5701563 C33.5258,14.3634375 33.1618,13.663125 33.3662,13.005 C33.5706,12.3482813 34.2706,11.9826563 34.9216,12.1865625 L42.4522,14.5575 L45.2816,7.4334375 C45.5364,6.79359375 46.2602,6.48 46.8958,6.73875 C47.5328,6.9946875 47.845,7.71890625 47.5902,8.35875 L44.331,16.5571875 C44.1392,17.0395313 43.6744,17.341875 43.1788,17.341875 Z" id="Shape"></path>
                    <path d="M1.2418,38.435625 C1.0892,38.435625 0.9324,38.4060937 0.7826,38.3442187 C0.1456,38.0882812 -0.1652,37.3640625 0.0896,36.7242187 L3.3474,28.5257812 C3.5882,27.9182812 4.2518,27.6004687 4.872,27.7973437 L13.5002,30.5114062 C14.1554,30.7167187 14.518,31.4170312 14.3136,32.07375 C14.1092,32.7332812 13.4106,33.0989062 12.7582,32.8921875 L5.229,30.5240625 L2.3968,37.648125 C2.2022,38.1360937 1.7346,38.435625 1.2418,38.435625 Z" id="Shape"></path>
                </g>
            </g>
        </g>
    </g>
</svg>