<?xml version="1.0" encoding="UTF-8"?>
<!DOCTYPE svg PUBLIC "-//W3C//DTD SVG 1.1//EN" "http://www.w3.org/Graphics/SVG/1.1/DTD/svg11.dtd">
<svg version="1.2" width="29.99mm" height="29.99mm" viewBox="0 0 2999 2999" preserveAspectRatio="xMidYMid" fill-rule="evenodd" stroke-width="28.222" stroke-linejoin="round" xmlns="http://www.w3.org/2000/svg" xmlns:ooo="http://xml.openoffice.org/svg/export" xmlns:xlink="http://www.w3.org/1999/xlink" xmlns:presentation="http://sun.com/xmlns/staroffice/presentation" xmlns:smil="http://www.w3.org/2001/SMIL20/" xmlns:anim="urn:oasis:names:tc:opendocument:xmlns:animation:1.0" xml:space="preserve">
 <defs class="ClipPathGroup">
  <clipPath id="presentation_clip_path" clipPathUnits="userSpaceOnUse">
   <rect x="0" y="0" width="2999" height="2999"/>
  </clipPath>
  <clipPath id="presentation_clip_path_shrink" clipPathUnits="userSpaceOnUse">
   <rect x="2" y="2" width="2994" height="2994"/>
  </clipPath>
 </defs>
 <defs class="TextShapeIndex">
  <g ooo:slide="id1" ooo:id-list="id3 id4 id5 id6 id7"/>
 </defs>
 <defs class="EmbeddedBulletChars">
  <g id="bullet-char-template(57356)" transform="scale(0.00048828125,-0.00048828125)">
   <path d="M 580,1141 L 1163,571 580,0 -4,571 580,1141 Z"/>
  </g>
  <g id="bullet-char-template(57354)" transform="scale(0.00048828125,-0.00048828125)">
   <path d="M 8,1128 L 1137,1128 1137,0 8,0 8,1128 Z"/>
  </g>
  <g id="bullet-char-template(10146)" transform="scale(0.00048828125,-0.00048828125)">
   <path d="M 174,0 L 602,739 174,1481 1456,739 174,0 Z M 1358,739 L 309,1346 659,739 1358,739 Z"/>
  </g>
  <g id="bullet-char-template(10132)" transform="scale(0.00048828125,-0.00048828125)">
   <path d="M 2015,739 L 1276,0 717,0 1260,543 174,543 174,936 1260,936 717,1481 1274,1481 2015,739 Z"/>
  </g>
  <g id="bullet-char-template(10007)" transform="scale(0.00048828125,-0.00048828125)">
   <path d="M 0,-2 C -7,14 -16,27 -25,37 L 356,567 C 262,823 215,952 215,954 215,979 228,992 255,992 264,992 276,990 289,987 310,991 331,999 354,1012 L 381,999 492,748 772,1049 836,1024 860,1049 C 881,1039 901,1025 922,1006 886,937 835,863 770,784 769,783 710,716 594,584 L 774,223 C 774,196 753,168 711,139 L 727,119 C 717,90 699,76 672,76 641,76 570,178 457,381 L 164,-76 C 142,-110 111,-127 72,-127 30,-127 9,-110 8,-76 1,-67 -2,-52 -2,-32 -2,-23 -1,-13 0,-2 Z"/>
  </g>
  <g id="bullet-char-template(10004)" transform="scale(0.00048828125,-0.00048828125)">
   <path d="M 285,-33 C 182,-33 111,30 74,156 52,228 41,333 41,471 41,549 55,616 82,672 116,743 169,778 240,778 293,778 328,747 346,684 L 369,508 C 377,444 397,411 428,410 L 1163,1116 C 1174,1127 1196,1133 1229,1133 1271,1133 1292,1118 1292,1087 L 1292,965 C 1292,929 1282,901 1262,881 L 442,47 C 390,-6 338,-33 285,-33 Z"/>
  </g>
  <g id="bullet-char-template(9679)" transform="scale(0.00048828125,-0.00048828125)">
   <path d="M 813,0 C 632,0 489,54 383,161 276,268 223,411 223,592 223,773 276,916 383,1023 489,1130 632,1184 813,1184 992,1184 1136,1130 1245,1023 1353,916 1407,772 1407,592 1407,412 1353,268 1245,161 1136,54 992,0 813,0 Z"/>
  </g>
  <g id="bullet-char-template(8226)" transform="scale(0.00048828125,-0.00048828125)">
   <path d="M 346,457 C 273,457 209,483 155,535 101,586 74,649 74,723 74,796 101,859 155,911 209,963 273,989 346,989 419,989 480,963 531,910 582,859 608,796 608,723 608,648 583,586 532,535 482,483 420,457 346,457 Z"/>
  </g>
  <g id="bullet-char-template(8211)" transform="scale(0.00048828125,-0.00048828125)">
   <path d="M -4,459 L 1135,459 1135,606 -4,606 -4,459 Z"/>
  </g>
  <g id="bullet-char-template(61548)" transform="scale(0.00048828125,-0.00048828125)">
   <path d="M 173,740 C 173,903 231,1043 346,1159 462,1274 601,1332 765,1332 928,1332 1067,1274 1183,1159 1299,1043 1357,903 1357,740 1357,577 1299,437 1183,322 1067,206 928,148 765,148 601,148 462,206 346,322 231,437 173,577 173,740 Z"/>
  </g>
 </defs>
 <defs class="TextEmbeddedBitmaps"/>
 <g>
  <g id="id2" class="Master_Slide">
   <g id="bg-id2" class="Background"/>
   <g id="bo-id2" class="BackgroundObjects"/>
  </g>
 </g>
 <g class="SlideGroup">
  <g>
   <g id="container-id1">
    <g id="id1" class="Slide" clip-path="url(#presentation_clip_path)">
     <g class="Page">
      <g class="com.sun.star.drawing.ClosedBezierShape">
       <g id="id3">
        <rect class="BoundingBox" stroke="none" fill="none" x="-27" y="-27" width="3054" height="3054"/>
        <path fill="none" stroke="rgb(27,177,104)" stroke-width="124" stroke-linejoin="miter" d="M 2964,1500 C 2964,1769 2903,1998 2768,2232 2633,2465 2465,2633 2232,2768 1998,2903 1769,2964 1500,2964 1230,2964 1001,2903 767,2768 534,2633 366,2465 231,2232 96,1998 35,1769 35,1500 35,1230 96,1001 231,767 366,534 534,366 767,231 1001,96 1230,35 1500,35 1769,35 1998,96 2232,231 2465,366 2633,534 2768,767 2903,1001 2964,1230 2964,1500 Z"/>
       </g>
      </g>
      <g class="com.sun.star.drawing.ClosedBezierShape">
       <g id="id4">
        <rect class="BoundingBox" stroke="none" fill="none" x="730" y="1439" width="1533" height="853"/>
        <path fill="rgb(27,177,104)" stroke="none" d="M 1476,2273 C 1149,2273 857,2063 750,1752 742,1729 755,1704 778,1696 800,1688 825,1700 833,1723 928,1999 1186,2184 1476,2184 1851,2184 2156,1878 2156,1501 2156,1477 2176,1457 2200,1457 2224,1457 2244,1477 2244,1501 2244,1926 1900,2273 1476,2273 Z"/>
        <path fill="none" stroke="rgb(27,176,104)" stroke-width="35" stroke-linejoin="miter" d="M 1476,2273 C 1149,2273 857,2063 750,1752 742,1729 755,1704 778,1696 800,1688 825,1700 833,1723 928,1999 1186,2184 1476,2184 1851,2184 2156,1878 2156,1501 2156,1477 2176,1457 2200,1457 2224,1457 2244,1477 2244,1501 2244,1926 1900,2273 1476,2273 Z"/>
       </g>
      </g>
      <g class="com.sun.star.drawing.ClosedBezierShape">
       <g id="id5">
        <rect class="BoundingBox" stroke="none" fill="none" x="691" y="712" width="1532" height="852"/>
        <path fill="rgb(27,177,104)" stroke="none" d="M 753,1545 C 729,1545 709,1526 709,1501 709,1076 1053,730 1476,730 1804,730 2096,939 2202,1250 2210,1273 2198,1298 2175,1306 2152,1314 2127,1302 2119,1279 2025,1003 1767,818 1476,818 1102,818 797,1125 797,1501 797,1526 777,1545 753,1545 Z"/>
        <path fill="none" stroke="rgb(27,176,104)" stroke-width="35" stroke-linejoin="miter" d="M 753,1545 C 729,1545 709,1526 709,1501 709,1076 1053,730 1476,730 1804,730 2096,939 2202,1250 2210,1273 2198,1298 2175,1306 2152,1314 2127,1302 2119,1279 2025,1003 1767,818 1476,818 1102,818 797,1125 797,1501 797,1526 777,1545 753,1545 Z"/>
       </g>
      </g>
      <g class="com.sun.star.drawing.ClosedBezierShape">
       <g id="id6">
        <rect class="BoundingBox" stroke="none" fill="none" x="1792" y="922" width="545" height="415"/>
        <path fill="rgb(27,177,104)" stroke="none" d="M 2159,1318 C 2155,1318 2150,1318 2146,1316 L 1841,1220 C 1818,1213 1805,1188 1812,1165 1819,1142 1844,1129 1867,1136 L 2133,1220 2233,968 C 2242,945 2268,934 2290,943 2313,952 2324,978 2315,1001 L 2200,1290 C 2193,1308 2176,1318 2159,1318 Z"/>
        <path fill="none" stroke="rgb(27,176,104)" stroke-width="35" stroke-linejoin="miter" d="M 2159,1318 C 2155,1318 2150,1318 2146,1316 L 1841,1220 C 1818,1213 1805,1188 1812,1165 1819,1142 1844,1129 1867,1136 L 2133,1220 2233,968 C 2242,945 2268,934 2290,943 2313,952 2324,978 2315,1001 L 2200,1290 C 2193,1308 2176,1318 2159,1318 Z"/>
       </g>
      </g>
      <g class="com.sun.star.drawing.ClosedBezierShape">
       <g id="id7">
        <rect class="BoundingBox" stroke="none" fill="none" x="617" y="1666" width="545" height="415"/>
        <path fill="rgb(27,177,104)" stroke="none" d="M 679,2062 C 673,2062 668,2061 663,2059 640,2050 629,2024 638,2002 L 753,1712 C 762,1690 785,1679 807,1686 L 1112,1782 C 1135,1789 1148,1814 1141,1837 1134,1861 1109,1874 1086,1866 L 820,1782 720,2034 C 713,2052 696,2062 679,2062 Z"/>
        <path fill="none" stroke="rgb(27,176,104)" stroke-width="35" stroke-linejoin="miter" d="M 679,2062 C 673,2062 668,2061 663,2059 640,2050 629,2024 638,2002 L 753,1712 C 762,1690 785,1679 807,1686 L 1112,1782 C 1135,1789 1148,1814 1141,1837 1134,1861 1109,1874 1086,1866 L 820,1782 720,2034 C 713,2052 696,2062 679,2062 Z"/>
       </g>
      </g>
     </g>
    </g>
   </g>
  </g>
 </g>
</svg>