<?xml version="1.0" encoding="utf-8"?>
<!-- Generator: Adobe Illustrator 19.0.0, SVG Export Plug-In . SVG Version: 6.00 Build 0)  -->
<svg version="1.1" id="Layer_1" xmlns="http://www.w3.org/2000/svg" xmlns:xlink="http://www.w3.org/1999/xlink" x="0px" y="0px"
	 viewBox="-387 272 17 17" style="enable-background:new -387 272 17 17;" xml:space="preserve">
<style type="text/css">
	.st0{fill:#333333;}
</style>
<path class="st0" d="M-380.8,284.5c-3.4,0-6.2-2.8-6.2-6.2s2.8-6.2,6.2-6.2s6.2,2.8,6.2,6.2l0,0
	C-374.5,281.7-377.3,284.5-380.8,284.5z M-380.8,273.1c-2.8,0-5.1,2.3-5.1,5.1s2.3,5.1,5.1,5.1s5.1-2.3,5.1-5.1l0,0
	C-375.7,275.4-378,273.1-380.8,273.1z M-370.2,288l-4-4c-0.2-0.2-0.6-0.2-0.8,0c-0.2,0.2-0.2,0.6,0,0.8l4,4c0.2,0.2,0.6,0.2,0.8,0
	S-369.9,288.3-370.2,288C-370.1,288.1-370.2,288-370.2,288L-370.2,288z"/>
</svg>
