<?xml version="1.0" encoding="UTF-8"?>
<!DOCTYPE svg PUBLIC "-//W3C//DTD SVG 1.1//EN" "http://www.w3.org/Graphics/SVG/1.1/DTD/svg11.dtd">
<svg version="1.2" width="13.41mm" height="13.41mm" viewBox="0 0 1341 1341" preserveAspectRatio="xMidYMid" fill-rule="evenodd" stroke-width="28.222" stroke-linejoin="round" xmlns="http://www.w3.org/2000/svg" xmlns:ooo="http://xml.openoffice.org/svg/export" xmlns:xlink="http://www.w3.org/1999/xlink" xmlns:presentation="http://sun.com/xmlns/staroffice/presentation" xmlns:smil="http://www.w3.org/2001/SMIL20/" xmlns:anim="urn:oasis:names:tc:opendocument:xmlns:animation:1.0" xml:space="preserve">
 <defs class="ClipPathGroup">
  <clipPath id="presentation_clip_path" clipPathUnits="userSpaceOnUse">
   <rect x="0" y="0" width="1341" height="1341"/>
  </clipPath>
  <clipPath id="presentation_clip_path_shrink" clipPathUnits="userSpaceOnUse">
   <rect x="1" y="1" width="1339" height="1339"/>
  </clipPath>
 </defs>
 <defs class="TextShapeIndex">
  <g ooo:slide="id1" ooo:id-list="id3"/>
 </defs>
 <defs class="EmbeddedBulletChars">
  <g id="bullet-char-template(57356)" transform="scale(0.00048828125,-0.00048828125)">
   <path d="M 580,1141 L 1163,571 580,0 -4,571 580,1141 Z"/>
  </g>
  <g id="bullet-char-template(57354)" transform="scale(0.00048828125,-0.00048828125)">
   <path d="M 8,1128 L 1137,1128 1137,0 8,0 8,1128 Z"/>
  </g>
  <g id="bullet-char-template(10146)" transform="scale(0.00048828125,-0.00048828125)">
   <path d="M 174,0 L 602,739 174,1481 1456,739 174,0 Z M 1358,739 L 309,1346 659,739 1358,739 Z"/>
  </g>
  <g id="bullet-char-template(10132)" transform="scale(0.00048828125,-0.00048828125)">
   <path d="M 2015,739 L 1276,0 717,0 1260,543 174,543 174,936 1260,936 717,1481 1274,1481 2015,739 Z"/>
  </g>
  <g id="bullet-char-template(10007)" transform="scale(0.00048828125,-0.00048828125)">
   <path d="M 0,-2 C -7,14 -16,27 -25,37 L 356,567 C 262,823 215,952 215,954 215,979 228,992 255,992 264,992 276,990 289,987 310,991 331,999 354,1012 L 381,999 492,748 772,1049 836,1024 860,1049 C 881,1039 901,1025 922,1006 886,937 835,863 770,784 769,783 710,716 594,584 L 774,223 C 774,196 753,168 711,139 L 727,119 C 717,90 699,76 672,76 641,76 570,178 457,381 L 164,-76 C 142,-110 111,-127 72,-127 30,-127 9,-110 8,-76 1,-67 -2,-52 -2,-32 -2,-23 -1,-13 0,-2 Z"/>
  </g>
  <g id="bullet-char-template(10004)" transform="scale(0.00048828125,-0.00048828125)">
   <path d="M 285,-33 C 182,-33 111,30 74,156 52,228 41,333 41,471 41,549 55,616 82,672 116,743 169,778 240,778 293,778 328,747 346,684 L 369,508 C 377,444 397,411 428,410 L 1163,1116 C 1174,1127 1196,1133 1229,1133 1271,1133 1292,1118 1292,1087 L 1292,965 C 1292,929 1282,901 1262,881 L 442,47 C 390,-6 338,-33 285,-33 Z"/>
  </g>
  <g id="bullet-char-template(9679)" transform="scale(0.00048828125,-0.00048828125)">
   <path d="M 813,0 C 632,0 489,54 383,161 276,268 223,411 223,592 223,773 276,916 383,1023 489,1130 632,1184 813,1184 992,1184 1136,1130 1245,1023 1353,916 1407,772 1407,592 1407,412 1353,268 1245,161 1136,54 992,0 813,0 Z"/>
  </g>
  <g id="bullet-char-template(8226)" transform="scale(0.00048828125,-0.00048828125)">
   <path d="M 346,457 C 273,457 209,483 155,535 101,586 74,649 74,723 74,796 101,859 155,911 209,963 273,989 346,989 419,989 480,963 531,910 582,859 608,796 608,723 608,648 583,586 532,535 482,483 420,457 346,457 Z"/>
  </g>
  <g id="bullet-char-template(8211)" transform="scale(0.00048828125,-0.00048828125)">
   <path d="M -4,459 L 1135,459 1135,606 -4,606 -4,459 Z"/>
  </g>
  <g id="bullet-char-template(61548)" transform="scale(0.00048828125,-0.00048828125)">
   <path d="M 173,740 C 173,903 231,1043 346,1159 462,1274 601,1332 765,1332 928,1332 1067,1274 1183,1159 1299,1043 1357,903 1357,740 1357,577 1299,437 1183,322 1067,206 928,148 765,148 601,148 462,206 346,322 231,437 173,577 173,740 Z"/>
  </g>
 </defs>
 <defs class="TextEmbeddedBitmaps"/>
 <g>
  <g id="id2" class="Master_Slide">
   <g id="bg-id2" class="Background"/>
   <g id="bo-id2" class="BackgroundObjects"/>
  </g>
 </g>
 <g class="SlideGroup">
  <g>
   <g id="container-id1">
    <g id="id1" class="Slide" clip-path="url(#presentation_clip_path)">
     <g class="Page">
      <g class="com.sun.star.drawing.ClosedBezierShape">
       <g id="id3">
        <rect class="BoundingBox" stroke="none" fill="none" x="0" y="0" width="1343" height="1343"/>
        <path fill="rgb(27,176,104)" stroke="none" d="M 735,1293 C 716,1293 699,1293 680,1290 L 671,1289 667,1289 C 659,1287 651,1286 643,1285 L 641,1284 C 634,1283 626,1281 618,1279 L 615,1278 C 608,1276 601,1275 594,1273 591,1272 589,1271 587,1270 581,1269 575,1267 570,1265 565,1263 560,1261 555,1259 552,1258 549,1257 546,1255 525,1246 509,1238 489,1227 397,1173 331,1107 277,1015 268,999 261,984 253,967 252,966 252,965 251,964 248,957 244,949 241,942 240,939 239,936 238,933 235,928 233,922 231,916 229,912 228,908 227,905 225,900 223,894 221,889 220,885 219,881 217,876 216,871 214,867 213,862 212,857 210,853 209,848 208,843 207,838 206,833 205,829 204,824 203,819 201,815 200,809 200,805 199,800 198,795 197,790 196,786 195,780 194,775 194,770 193,766 192,761 192,755 191,750 191,744 190,740 190,735 189,731 189,725 188,718 188,712 188,708 187,704 187,701 187,691 186,680 186,670 186,660 187,649 187,639 187,636 188,632 188,628 188,622 189,615 189,609 190,605 190,600 191,596 191,590 192,585 192,579 193,575 194,570 194,565 195,560 196,555 197,550 198,545 199,540 200,536 200,531 201,526 203,521 204,516 205,511 206,507 207,502 208,497 209,492 210,487 212,483 213,478 214,474 216,469 217,464 219,459 220,455 221,451 223,446 225,441 227,435 228,432 229,428 231,424 233,418 235,412 238,407 239,404 240,401 241,398 244,391 248,383 251,376 252,375 252,374 253,373 261,356 268,341 277,325 331,233 397,167 489,113 509,102 525,94 546,85 549,83 552,82 555,81 560,79 565,77 570,75 575,73 581,71 587,70 589,69 591,68 594,68 601,65 608,63 615,62 616,61 617,61 618,61 626,59 634,57 641,56 L 643,55 C 651,54 659,53 667,51 L 671,51 680,50 680,50 C 699,47 716,47 735,47 1037,47 1283,326 1283,670 L 1283,671 C 1283,747 1273,812 1250,885 1262,894 1271,904 1279,917 1281,921 1282,924 1284,927 1316,841 1330,763 1330,670 L 1330,670 C 1330,300 1063,0 735,0 711,3 690,5 665,5 640,5 619,3 595,0 493,1 408,25 320,76 255,113 206,155 159,214 158,215 158,216 157,217 133,247 115,273 96,306 85,324 77,340 68,359 68,360 67,361 67,362 49,401 37,434 26,475 L 26,475 C 24,478 24,480 24,482 L 24,482 C 7,547 0,603 0,669 L 0,670 0,670 C 0,670 0,671 0,672 0,774 17,860 56,954 L 56,954 C 57,955 57,956 58,957 69,984 80,1007 95,1033 109,1057 122,1077 139,1099 L 139,1099 C 140,1100 140,1101 141,1102 L 141,1102 C 175,1147 208,1181 252,1216 253,1218 254,1219 256,1220 279,1238 299,1252 324,1266 411,1316 495,1339 595,1340 L 595,1340 C 620,1336 640,1335 665,1335 690,1335 711,1336 735,1340 L 735,1340 C 809,1339 872,1327 941,1297 930,1295 921,1292 912,1286 903,1281 896,1275 888,1267 836,1285 790,1293 735,1293 Z M 496,56 C 493,58 491,59 489,60 481,64 473,69 466,73 461,75 457,78 453,80 447,84 440,88 434,92 L 389,92 C 425,76 457,65 496,56 Z M 309,139 L 373,139 C 367,144 362,149 356,154 351,158 347,163 342,167 338,172 333,177 329,182 324,186 320,191 316,195 312,200 308,204 305,208 L 228,208 C 254,181 278,160 309,139 Z M 187,254 L 269,254 C 266,258 263,262 260,266 253,277 247,287 240,298 239,301 237,304 235,308 230,317 225,326 220,335 218,339 216,342 215,345 L 214,347 127,347 C 130,340 133,335 136,329 152,302 167,279 187,254 Z M 104,393 L 193,393 C 189,403 185,413 182,423 181,426 180,429 179,432 175,442 172,452 169,462 L 78,462 C 86,437 94,417 104,393 Z M 65,508 L 157,508 C 157,511 156,514 156,516 155,519 154,523 154,526 151,540 149,555 147,570 147,570 147,571 146,572 146,574 146,576 146,578 L 53,578 C 56,553 60,532 65,508 Z M 46,670 C 46,654 47,639 48,624 L 141,624 141,625 C 140,640 140,655 140,670 140,678 140,685 140,693 L 47,693 C 47,685 47,678 47,670 L 46,670 Z M 50,739 L 143,739 C 144,749 145,759 146,768 146,769 146,770 147,770 148,783 150,796 153,809 L 61,809 C 56,784 53,764 50,739 Z M 72,855 L 163,855 C 164,858 164,860 165,863 165,864 166,865 166,866 170,880 174,894 179,908 180,911 181,914 182,916 183,919 184,922 184,924 L 94,924 C 85,900 78,879 72,855 Z M 170,1063 C 157,1045 147,1030 137,1011 128,997 122,985 115,970 L 203,970 C 207,978 210,987 214,995 216,998 218,1001 220,1005 224,1014 229,1023 235,1032 237,1036 238,1039 240,1042 244,1049 249,1056 253,1063 L 169,1063 170,1063 Z M 206,1109 L 286,1109 C 289,1112 291,1116 294,1119 301,1128 308,1136 316,1145 320,1149 324,1154 329,1158 333,1163 338,1168 342,1173 344,1174 346,1176 348,1178 L 277,1178 C 250,1156 229,1135 206,1109 Z M 345,1224 L 401,1224 C 404,1227 407,1229 410,1231 415,1234 420,1238 425,1242 434,1248 443,1254 453,1260 457,1262 461,1265 466,1267 473,1271 481,1276 488,1279 491,1281 493,1282 496,1283 L 496,1283 C 442,1272 398,1255 350,1227 348,1226 347,1225 345,1224 Z M 319,670 C 319,655 319,641 320,627 320,626 320,626 320,625 320,621 320,617 317,614 315,610 313,607 309,605 305,603 301,602 297,602 293,602 289,603 285,605 282,607 279,610 277,614 275,617 274,620 274,623 273,639 272,654 272,670 L 272,671 272,671 C 272,675 273,678 275,682 277,686 280,688 284,690 287,693 291,694 295,694 L 295,694 295,694 295,694 C 300,694 303,693 307,690 311,688 314,686 316,682 318,678 319,674 319,670 Z M 1135,538 L 1135,538 C 1135,540 1136,542 1137,544 1139,548 1142,550 1146,553 1149,555 1153,556 1157,556 L 1157,556 C 1159,556 1161,555 1163,555 1165,554 1167,554 1169,553 1173,550 1176,548 1178,544 1180,540 1181,537 1181,533 1181,531 1181,529 1180,527 1176,511 1172,496 1166,481 1166,480 1165,478 1165,477 1162,473 1160,471 1156,469 1152,466 1149,465 1144,465 1142,465 1139,466 1137,467 L 1137,467 C 1135,467 1134,468 1132,469 1129,471 1126,473 1124,477 1122,481 1121,484 1121,489 1121,491 1121,493 1122,496 1127,510 1131,524 1135,538 Z M 335,801 C 334,799 334,797 332,795 330,791 328,789 324,787 320,784 317,783 312,783 310,783 309,784 307,784 304,785 302,785 300,787 297,789 294,791 292,795 290,799 289,802 289,807 289,808 289,810 289,812 293,827 298,843 303,858 304,859 304,861 305,862 307,866 310,868 313,870 317,873 321,874 325,874 L 325,874 325,874 C 328,874 330,873 333,872 L 333,872 C 334,872 336,871 337,870 341,868 343,866 345,862 348,858 348,855 348,850 348,848 348,846 347,843 343,829 338,815 335,801 Z M 965,218 C 959,214 953,211 947,207 938,203 931,199 923,194 L 923,194 C 919,193 916,192 912,192 908,192 904,193 900,195 897,197 894,200 892,204 892,204 891,204 891,205 L 891,205 C 890,208 889,211 889,215 889,219 890,223 892,226 894,230 897,233 900,235 901,235 901,235 902,236 909,239 915,243 923,247 929,250 934,253 939,257 L 939,257 C 940,257 940,258 940,258 944,260 948,261 952,261 956,261 960,260 964,258 967,256 970,254 972,250 L 973,249 C 975,245 976,242 976,238 976,233 975,230 973,226 971,223 968,220 965,218 Z M 1102,353 C 1093,340 1083,327 1073,315 1071,312 1069,311 1067,309 1063,307 1059,306 1055,306 1051,306 1047,307 1043,309 1042,310 1041,311 1040,312 1038,313 1036,315 1035,318 1033,322 1032,325 1032,329 1032,334 1033,337 1035,341 1035,342 1036,343 1037,344 1046,355 1055,367 1063,379 L 1063,379 C 1065,382 1068,384 1071,386 1075,388 1078,389 1083,389 1087,389 1091,388 1094,386 1095,386 1095,385 1096,385 1099,383 1101,381 1103,377 1105,374 1106,370 1106,366 1106,362 1105,358 1103,354 L 1102,353 Z M 1174,646 C 1170,646 1167,647 1163,649 1159,651 1156,654 1154,658 1152,662 1151,666 1151,670 1151,684 1151,698 1149,712 1149,713 1149,713 1149,714 1149,718 1150,722 1152,725 1155,729 1157,732 1161,734 1164,736 1167,737 1171,737 L 1173,737 1173,737 C 1177,737 1181,736 1184,734 1188,732 1191,729 1193,725 1195,722 1196,719 1196,716 1197,701 1198,685 1198,670 L 1198,668 C 1198,664 1197,661 1195,657 1193,654 1190,651 1186,649 1183,647 1179,646 1175,646 L 1174,646 Z M 783,152 L 783,152 C 766,150 752,150 735,150 L 734,150 734,150 C 730,150 726,151 722,153 719,155 716,157 714,161 712,165 711,168 711,172 711,173 711,173 711,173 711,177 712,180 714,184 716,188 719,190 723,193 727,195 730,196 735,196 L 735,196 C 750,196 762,197 777,198 778,198 778,198 778,198 779,198 779,198 780,198 784,198 788,197 791,195 795,193 798,190 800,187 802,183 803,179 803,175 803,171 802,167 800,164 798,160 795,157 791,155 788,154 786,153 783,152 Z M 406,960 L 406,960 C 404,957 402,955 398,953 395,951 391,950 387,950 382,950 379,951 375,953 374,953 374,954 374,954 370,956 368,958 366,962 364,965 363,969 363,973 363,977 364,981 366,985 367,985 367,986 367,986 376,999 386,1012 396,1025 398,1027 400,1028 403,1030 406,1032 410,1033 414,1033 419,1033 422,1032 426,1030 427,1029 428,1029 429,1028 L 429,1028 C 431,1026 433,1024 435,1021 437,1018 438,1014 438,1010 438,1006 437,1002 435,998 434,997 433,996 432,995 423,984 414,972 406,960 Z M 351,426 C 348,425 345,425 342,425 337,425 334,426 330,428 326,430 324,433 321,436 321,437 321,438 320,438 314,453 308,468 303,483 302,485 302,488 302,490 302,495 303,498 305,502 307,506 309,508 313,510 315,511 316,512 317,512 320,513 322,513 325,513 L 325,513 325,513 C 329,513 333,512 337,510 340,508 343,506 345,502 346,500 347,499 347,498 352,484 357,470 363,457 364,454 365,451 365,448 365,443 364,440 362,436 360,432 357,430 354,428 353,427 352,427 351,426 Z M 735,1144 L 735,1144 C 720,1144 707,1143 692,1141 L 692,1141 C 691,1141 690,1141 689,1141 685,1141 681,1142 677,1144 673,1146 671,1149 669,1153 667,1156 666,1158 666,1162 L 666,1162 C 666,1162 666,1163 666,1164 666,1168 666,1172 669,1176 671,1179 673,1182 677,1184 680,1186 683,1187 686,1187 703,1189 718,1190 735,1190 L 737,1190 C 741,1190 745,1189 748,1187 752,1185 754,1182 756,1179 758,1175 759,1172 759,1168 759,1167 759,1167 759,1167 L 759,1167 C 759,1163 758,1159 756,1156 754,1152 751,1149 747,1147 743,1145 740,1144 735,1144 Z M 428,280 C 417,292 406,304 395,316 395,317 394,318 393,319 391,323 390,326 390,331 390,335 391,338 393,342 395,345 396,347 399,349 L 399,349 C 400,349 401,350 402,351 406,353 409,354 413,354 418,354 421,353 425,351 428,349 430,348 432,345 441,334 451,323 461,313 463,311 464,310 465,308 467,304 468,301 468,297 468,292 467,289 465,285 464,283 463,282 461,280 L 461,280 C 459,279 458,278 456,277 453,275 449,274 445,274 440,274 437,275 433,277 431,278 429,279 428,280 Z M 590,176 C 574,182 560,187 545,195 L 544,196 C 540,198 538,200 536,204 533,208 532,211 532,216 532,219 533,223 535,226 L 535,226 535,227 C 538,231 540,233 544,236 548,238 551,239 556,239 560,239 563,238 566,236 580,229 592,224 606,219 L 606,219 C 608,218 609,218 610,217 614,215 616,212 618,209 620,205 621,201 621,197 621,194 621,192 620,189 L 620,189 C 619,188 619,187 618,186 616,182 613,179 610,177 606,175 602,174 598,174 595,174 593,175 590,176 Z M 567,1104 C 560,1100 554,1097 547,1093 541,1089 536,1086 530,1082 529,1082 529,1082 529,1082 525,1079 521,1078 517,1078 512,1078 509,1079 505,1082 502,1083 499,1086 497,1089 L 497,1090 C 494,1094 493,1097 493,1102 493,1106 494,1109 497,1113 498,1116 501,1119 504,1121 511,1125 516,1129 523,1133 531,1137 538,1141 546,1145 550,1147 553,1148 557,1148 561,1148 565,1147 569,1144 572,1142 575,1140 577,1136 577,1135 578,1135 578,1135 579,1132 580,1128 580,1124 580,1120 579,1117 577,1113 575,1109 572,1107 569,1105 568,1104 568,1104 567,1104 Z M 1063,1342 C 1013,1341 970,1330 927,1305 883,1279 852,1247 826,1203 801,1159 789,1116 789,1065 789,1014 801,971 826,927 852,883 883,852 927,826 971,801 1014,789 1065,789 1116,789 1159,801 1203,826 1247,852 1279,883 1305,927 1330,971 1342,1014 1342,1065 1341,1116 1330,1159 1304,1203 1279,1247 1247,1279 1203,1304 1158,1330 1115,1342 1064,1342 1063,1342 1063,1342 1063,1342 Z M 1063,812 C 1017,813 978,823 939,846 898,869 869,898 846,939 823,979 812,1019 812,1065 812,1112 823,1152 846,1192 869,1232 898,1261 939,1285 979,1308 1019,1318 1065,1318 1112,1318 1151,1308 1192,1285 1232,1261 1261,1232 1284,1192 1308,1152 1318,1112 1318,1065 1318,1019 1307,980 1284,940 1261,899 1232,870 1191,846 1150,823 1111,812 1064,812 1063,812 1063,812 1063,812 Z M 1208,1077 L 1208,1077 Z M 1210,1083 C 1209,1083 1209,1082 1208,1082 L 1207,1081 1206,1080 1206,1080 1205,1079 1204,1078 C 1203,1078 1203,1077 1203,1077 1203,1076 1203,1076 1203,1075 L 1203,1074 C 1203,1073 1203,1073 1204,1073 1204,1072 1204,1072 1205,1072 1205,1071 1206,1071 1207,1071 1207,1071 1208,1071 1208,1072 1209,1072 1209,1072 1209,1073 L 1210,1074 1211,1074 1212,1075 1213,1076 C 1213,1076 1213,1077 1214,1077 1214,1078 1214,1078 1214,1079 L 1214,1080 C 1213,1081 1213,1081 1213,1081 1212,1082 1212,1082 1212,1082 1211,1083 1211,1083 1210,1083 Z M 935,1055 C 936,1056 937,1056 938,1057 940,1058 942,1059 945,1059 947,1059 949,1058 951,1057 952,1056 953,1056 954,1055 L 1047,963 1047,1201 C 1047,1204 1048,1206 1049,1208 1051,1210 1052,1212 1054,1213 1056,1214 1059,1215 1061,1215 1064,1215 1066,1214 1068,1213 1070,1212 1072,1210 1073,1208 1074,1206 1075,1204 1075,1201 L 1075,963 1171,1058 C 1172,1059 1173,1060 1174,1061 1176,1062 1179,1062 1181,1062 1184,1062 1186,1062 1188,1061 1190,1059 1192,1058 1193,1056 1194,1054 1195,1051 1195,1049 1195,1046 1194,1044 1193,1042 1192,1041 1192,1040 1191,1039 L 1072,921 C 1070,920 1069,919 1068,918 1066,917 1063,916 1061,916 1058,916 1056,917 1054,918 1053,919 1052,920 1051,921 L 935,1036 C 934,1037 933,1038 932,1039 931,1041 931,1043 931,1045 931,1048 931,1050 932,1052 933,1053 934,1054 935,1055 Z M 1061,913 L 1062,913 C 1065,913 1067,914 1070,915 1072,916 1073,918 1074,919 L 1193,1037 C 1194,1038 1195,1039 1196,1041 1198,1043 1198,1046 1198,1048 1198,1050 1198,1051 1198,1052 1197,1054 1197,1055 1196,1057 1194,1060 1192,1062 1189,1064 1188,1064 1186,1065 1185,1065 1183,1066 1182,1066 1181,1066 1178,1066 1175,1065 1173,1064 1171,1063 1170,1062 1169,1061 L 1078,971 1078,1201 C 1078,1204 1077,1206 1076,1209 1074,1211 1072,1213 1070,1215 1067,1217 1064,1217 1061,1217 1058,1217 1055,1217 1053,1215 1050,1213 1048,1211 1046,1209 1045,1206 1044,1204 1044,1201 L 1044,971 957,1057 C 956,1058 955,1059 953,1060 950,1062 948,1062 945,1062 941,1062 939,1062 936,1060 L 935,1060 935,1059 934,1059 933,1058 932,1057 931,1056 931,1055 930,1055 C 930,1054 930,1054 930,1054 928,1051 928,1049 928,1046 L 928,1046 C 928,1043 928,1040 930,1037 931,1036 932,1035 933,1034 L 1049,918 C 1050,917 1051,916 1053,915 1056,914 1058,913 1061,913 Z M 1180,1059 C 1181,1059 1182,1059 1183,1059 1184,1059 1185,1058 1185,1058 1187,1057 1189,1055 1190,1053 1190,1052 1191,1052 1191,1051 1191,1050 1191,1049 1191,1048 1191,1047 1191,1045 1190,1044 1190,1043 1189,1042 1188,1042 L 1069,924 C 1068,923 1067,922 1066,921 1065,920 1063,920 1062,920 L 1062,920 C 1061,920 1061,920 1061,920 1059,920 1057,920 1056,921 1055,922 1054,922 1054,923 L 937,1038 C 936,1039 936,1039 936,1040 935,1042 934,1043 934,1045 934,1047 935,1049 936,1050 936,1051 936,1052 937,1052 938,1053 938,1053 939,1054 941,1055 942,1055 944,1055 946,1055 948,1055 949,1054 950,1053 951,1053 951,1052 L 1051,954 1051,1201 1051,1201 C 1051,1203 1051,1204 1052,1206 1053,1208 1054,1209 1056,1210 1057,1211 1059,1211 1061,1211 1063,1211 1064,1211 1066,1210 1068,1209 1069,1208 1070,1206 1071,1204 1071,1203 1071,1201 L 1071,955 1173,1056 C 1174,1057 1175,1057 1176,1058 1177,1059 1179,1059 1180,1059 Z"/>
       </g>
      </g>
     </g>
    </g>
   </g>
  </g>
 </g>
</svg>