<?xml version="1.0" encoding="UTF-8"?>
<!DOCTYPE svg PUBLIC "-//W3C//DTD SVG 1.1//EN" "http://www.w3.org/Graphics/SVG/1.1/DTD/svg11.dtd">
<svg version="1.2" width="8.12mm" height="8.12mm" viewBox="0 0 812 812" preserveAspectRatio="xMidYMid" fill-rule="evenodd" stroke-width="28.222" stroke-linejoin="round" xmlns="http://www.w3.org/2000/svg" xmlns:ooo="http://xml.openoffice.org/svg/export" xmlns:xlink="http://www.w3.org/1999/xlink" xmlns:presentation="http://sun.com/xmlns/staroffice/presentation" xmlns:smil="http://www.w3.org/2001/SMIL20/" xmlns:anim="urn:oasis:names:tc:opendocument:xmlns:animation:1.0" xml:space="preserve">
 <defs class="ClipPathGroup">
  <clipPath id="presentation_clip_path" clipPathUnits="userSpaceOnUse">
   <rect x="0" y="0" width="812" height="812"/>
  </clipPath>
  <clipPath id="presentation_clip_path_shrink" clipPathUnits="userSpaceOnUse">
   <rect x="0" y="0" width="811" height="811"/>
  </clipPath>
 </defs>
 <defs class="TextShapeIndex">
  <g ooo:slide="id1" ooo:id-list="id3"/>
 </defs>
 <defs class="EmbeddedBulletChars">
  <g id="bullet-char-template(57356)" transform="scale(0.00048828125,-0.00048828125)">
   <path d="M 580,1141 L 1163,571 580,0 -4,571 580,1141 Z"/>
  </g>
  <g id="bullet-char-template(57354)" transform="scale(0.00048828125,-0.00048828125)">
   <path d="M 8,1128 L 1137,1128 1137,0 8,0 8,1128 Z"/>
  </g>
  <g id="bullet-char-template(10146)" transform="scale(0.00048828125,-0.00048828125)">
   <path d="M 174,0 L 602,739 174,1481 1456,739 174,0 Z M 1358,739 L 309,1346 659,739 1358,739 Z"/>
  </g>
  <g id="bullet-char-template(10132)" transform="scale(0.00048828125,-0.00048828125)">
   <path d="M 2015,739 L 1276,0 717,0 1260,543 174,543 174,936 1260,936 717,1481 1274,1481 2015,739 Z"/>
  </g>
  <g id="bullet-char-template(10007)" transform="scale(0.00048828125,-0.00048828125)">
   <path d="M 0,-2 C -7,14 -16,27 -25,37 L 356,567 C 262,823 215,952 215,954 215,979 228,992 255,992 264,992 276,990 289,987 310,991 331,999 354,1012 L 381,999 492,748 772,1049 836,1024 860,1049 C 881,1039 901,1025 922,1006 886,937 835,863 770,784 769,783 710,716 594,584 L 774,223 C 774,196 753,168 711,139 L 727,119 C 717,90 699,76 672,76 641,76 570,178 457,381 L 164,-76 C 142,-110 111,-127 72,-127 30,-127 9,-110 8,-76 1,-67 -2,-52 -2,-32 -2,-23 -1,-13 0,-2 Z"/>
  </g>
  <g id="bullet-char-template(10004)" transform="scale(0.00048828125,-0.00048828125)">
   <path d="M 285,-33 C 182,-33 111,30 74,156 52,228 41,333 41,471 41,549 55,616 82,672 116,743 169,778 240,778 293,778 328,747 346,684 L 369,508 C 377,444 397,411 428,410 L 1163,1116 C 1174,1127 1196,1133 1229,1133 1271,1133 1292,1118 1292,1087 L 1292,965 C 1292,929 1282,901 1262,881 L 442,47 C 390,-6 338,-33 285,-33 Z"/>
  </g>
  <g id="bullet-char-template(9679)" transform="scale(0.00048828125,-0.00048828125)">
   <path d="M 813,0 C 632,0 489,54 383,161 276,268 223,411 223,592 223,773 276,916 383,1023 489,1130 632,1184 813,1184 992,1184 1136,1130 1245,1023 1353,916 1407,772 1407,592 1407,412 1353,268 1245,161 1136,54 992,0 813,0 Z"/>
  </g>
  <g id="bullet-char-template(8226)" transform="scale(0.00048828125,-0.00048828125)">
   <path d="M 346,457 C 273,457 209,483 155,535 101,586 74,649 74,723 74,796 101,859 155,911 209,963 273,989 346,989 419,989 480,963 531,910 582,859 608,796 608,723 608,648 583,586 532,535 482,483 420,457 346,457 Z"/>
  </g>
  <g id="bullet-char-template(8211)" transform="scale(0.00048828125,-0.00048828125)">
   <path d="M -4,459 L 1135,459 1135,606 -4,606 -4,459 Z"/>
  </g>
  <g id="bullet-char-template(61548)" transform="scale(0.00048828125,-0.00048828125)">
   <path d="M 173,740 C 173,903 231,1043 346,1159 462,1274 601,1332 765,1332 928,1332 1067,1274 1183,1159 1299,1043 1357,903 1357,740 1357,577 1299,437 1183,322 1067,206 928,148 765,148 601,148 462,206 346,322 231,437 173,577 173,740 Z"/>
  </g>
 </defs>
 <defs class="TextEmbeddedBitmaps"/>
 <g class="SlideGroup">
  <g>
   <g id="container-id1">
    <g id="id1" class="Slide" clip-path="url(#presentation_clip_path)">
     <g class="Page">
      <g class="com.sun.star.drawing.ClosedBezierShape">
       <g id="id3">
        <rect class="BoundingBox" stroke="none" fill="none" x="0" y="0" width="813" height="813"/>
        <path fill="rgb(27,176,104)" stroke="none" d="M 406,812 C 331,812 268,795 203,758 138,721 92,674 54,609 17,545 0,481 0,406 0,331 17,268 54,203 92,138 138,92 203,54 268,17 331,0 406,0 481,0 545,17 609,54 674,92 721,138 758,203 795,268 812,331 812,406 812,481 795,544 758,609 720,674 674,720 609,758 544,795 481,812 406,812 Z M 406,33 C 338,33 279,49 220,83 160,118 118,160 83,220 49,279 33,338 33,406 33,475 49,533 83,593 118,652 160,695 220,729 279,763 338,779 406,779 475,779 533,763 593,729 652,695 695,652 729,593 763,533 779,475 779,406 779,338 763,279 729,220 695,160 652,118 592,83 533,49 475,33 406,33 Z M 239,572 L 238,572 C 234,572 231,571 228,569 224,567 222,564 220,561 218,557 217,554 217,550 217,546 218,543 220,539 222,536 224,533 228,531 231,529 235,529 239,529 243,529 246,529 249,531 253,533 255,536 257,539 259,543 260,546 260,550 260,554 259,557 257,561 255,564 253,567 249,569 246,571 243,572 239,572 Z M 613,572 L 329,572 329,572 C 325,572 322,571 318,569 315,567 313,564 311,561 309,557 308,554 308,550 308,546 309,543 311,539 313,536 315,533 318,531 322,529 325,529 329,529 L 329,529 613,529 C 617,529 620,530 623,531 626,533 629,536 631,539 633,543 634,546 634,550 634,554 633,557 631,561 629,564 626,567 623,569 620,571 617,572 613,572 Z M 613,428 L 329,428 C 325,428 322,427 318,425 315,423 313,420 311,417 309,414 308,410 308,406 308,402 309,399 311,395 313,392 315,390 318,388 322,386 325,385 329,385 L 613,385 C 617,385 620,386 623,388 626,390 629,392 631,395 633,399 634,402 634,406 634,410 633,414 631,417 629,420 626,423 623,425 620,427 617,428 613,428 Z M 239,428 L 238,428 C 238,428 237,428 236,428 232,428 229,427 225,425 222,423 219,421 217,417 215,414 214,410 214,406 214,402 215,399 217,396 219,392 222,390 225,388 229,386 232,385 236,385 240,385 243,386 247,388 250,390 253,392 255,396 257,399 257,402 257,406 257,410 257,414 255,417 253,421 250,423 247,425 244,427 242,427 239,428 Z M 613,284 L 329,284 329,284 C 325,284 322,283 318,281 315,279 313,277 311,273 309,270 308,266 308,262 308,258 309,255 311,252 313,248 315,246 318,244 322,242 325,241 329,241 L 329,241 613,241 C 617,241 620,242 624,244 627,246 630,248 632,252 634,255 635,258 635,262 635,266 634,270 632,273 630,277 627,279 624,281 620,283 617,284 613,284 Z M 239,284 L 238,284 C 234,284 231,283 228,281 224,279 222,277 220,273 218,270 217,266 217,262 217,258 218,255 220,252 222,248 224,246 228,244 231,242 235,241 239,241 243,241 246,242 249,244 253,246 255,248 257,252 259,255 260,258 260,262 260,266 259,270 257,273 255,277 253,279 249,281 246,283 243,284 239,284 Z"/>
       </g>
      </g>
     </g>
    </g>
   </g>
  </g>
 </g>
</svg>