<svg xmlns="http://www.w3.org/2000/svg" width="23" height="23" viewBox="0 0 23 23">
  <metadata><?xpacket begin="﻿" id="W5M0MpCehiHzreSzNTczkc9d"?>
<x:xmpmeta xmlns:x="adobe:ns:meta/" x:xmptk="Adobe XMP Core 5.6-c138 79.159824, 2016/09/14-01:09:01        ">
   <rdf:RDF xmlns:rdf="http://www.w3.org/1999/02/22-rdf-syntax-ns#">
      <rdf:Description rdf:about=""/>
   </rdf:RDF>
</x:xmpmeta>
                                                                                                    
                                                                                                    
                                                                                                    
                                                                                                    
                                                                                                    
                                                                                                    
                                                                                                    
                                                                                                    
                                                                                                    
                                                                                                    
                                                                                                    
                                                                                                    
                                                                                                    
                                                                                                    
                                                                                                    
                                                                                                    
                                                                                                    
                                                                                                    
                                                                                                    
                                                                                                    
                           
<?xpacket end="w"?></metadata>
<defs>
    <style>
      .cls-1 {
        fill: #1bb068;
        fill-rule: evenodd;
      }
    </style>
  </defs>
  <path class="cls-1" d="M11.5,23A11.5,11.5,0,1,1,23,11.5,11.514,11.514,0,0,1,11.5,23Zm0-22.057A10.556,10.556,0,1,0,22.056,11.5,10.568,10.568,0,0,0,11.5.944ZM6.758,16.186H6.75A0.611,0.611,0,1,1,6.758,16.186Zm10.594,0H9.321a0.611,0.611,0,1,1,0-1.222h8.032A0.611,0.611,0,0,1,17.353,16.185Zm0-4.074H9.321a0.611,0.611,0,0,1,0-1.222h8.032A0.611,0.611,0,0,1,17.353,12.111Zm-10.594,0H6.75A0.611,0.611,0,1,1,6.758,12.111ZM17.353,8.037H9.321a0.611,0.611,0,1,1,0-1.222h8.032A0.611,0.611,0,0,1,17.353,8.037Zm-10.594,0H6.75A0.611,0.611,0,1,1,6.758,8.037Z"/>
</svg>
