<svg xmlns="http://www.w3.org/2000/svg" width="23" height="23" viewBox="0 0 23 23">
  <metadata><?xpacket begin="﻿" id="W5M0MpCehiHzreSzNTczkc9d"?>
<x:xmpmeta xmlns:x="adobe:ns:meta/" x:xmptk="Adobe XMP Core 5.6-c138 79.159824, 2016/09/14-01:09:01        ">
   <rdf:RDF xmlns:rdf="http://www.w3.org/1999/02/22-rdf-syntax-ns#">
      <rdf:Description rdf:about=""/>
   </rdf:RDF>
</x:xmpmeta>
                                                                                                    
                                                                                                    
                                                                                                    
                                                                                                    
                                                                                                    
                                                                                                    
                                                                                                    
                                                                                                    
                                                                                                    
                                                                                                    
                                                                                                    
                                                                                                    
                                                                                                    
                                                                                                    
                                                                                                    
                                                                                                    
                                                                                                    
                                                                                                    
                                                                                                    
                                                                                                    
                           
<?xpacket end="w"?></metadata>
<defs>
    <style>
      .cls-1 {
        fill: #1bb068;
        fill-rule: evenodd;
      }
    </style>
  </defs>
  <path id="Shape_12_copy" data-name="Shape 12 copy" class="cls-1" d="M11.5,23A11.5,11.5,0,1,1,23,11.5,11.513,11.513,0,0,1,11.5,23Zm0-22.057A10.556,10.556,0,1,0,22.056,11.5,10.568,10.568,0,0,0,11.5.944Zm2.893,16.54a0.327,0.327,0,0,1-.19-0.593L17.275,14.7H4.651a0.327,0.327,0,1,1,0-.653H17.37L14.2,11.792a0.327,0.327,0,0,1,.379-0.532l3.951,2.816a0.327,0.327,0,0,1,0,.532l-3.951,2.815A0.325,0.325,0,0,1,14.393,17.484ZM8.6,11.8a0.326,0.326,0,0,1-.189-0.061L4.461,8.924a0.327,0.327,0,0,1,0-.532L8.413,5.577a0.327,0.327,0,0,1,.379.532L5.7,8.309H18.348a0.327,0.327,0,0,1,0,.653H5.641l3.151,2.246A0.327,0.327,0,0,1,8.6,11.8Z"/>
</svg>
