<?xml version="1.0" encoding="UTF-8"?>
<!DOCTYPE svg PUBLIC "-//W3C//DTD SVG 1.1//EN" "http://www.w3.org/Graphics/SVG/1.1/DTD/svg11.dtd">
<svg version="1.2" width="8.11mm" height="8.11mm" viewBox="0 0 811 811" preserveAspectRatio="xMidYMid" fill-rule="evenodd" stroke-width="28.222" stroke-linejoin="round" xmlns="http://www.w3.org/2000/svg" xmlns:ooo="http://xml.openoffice.org/svg/export" xmlns:xlink="http://www.w3.org/1999/xlink" xmlns:presentation="http://sun.com/xmlns/staroffice/presentation" xmlns:smil="http://www.w3.org/2001/SMIL20/" xmlns:anim="urn:oasis:names:tc:opendocument:xmlns:animation:1.0" xml:space="preserve">
 <defs class="ClipPathGroup">
  <clipPath id="presentation_clip_path" clipPathUnits="userSpaceOnUse">
   <rect x="0" y="0" width="811" height="811"/>
  </clipPath>
  <clipPath id="presentation_clip_path_shrink" clipPathUnits="userSpaceOnUse">
   <rect x="0" y="0" width="810" height="810"/>
  </clipPath>
 </defs>
 <defs class="TextShapeIndex">
  <g ooo:slide="id1" ooo:id-list="id3"/>
 </defs>
 <defs class="EmbeddedBulletChars">
  <g id="bullet-char-template(57356)" transform="scale(0.00048828125,-0.00048828125)">
   <path d="M 580,1141 L 1163,571 580,0 -4,571 580,1141 Z"/>
  </g>
  <g id="bullet-char-template(57354)" transform="scale(0.00048828125,-0.00048828125)">
   <path d="M 8,1128 L 1137,1128 1137,0 8,0 8,1128 Z"/>
  </g>
  <g id="bullet-char-template(10146)" transform="scale(0.00048828125,-0.00048828125)">
   <path d="M 174,0 L 602,739 174,1481 1456,739 174,0 Z M 1358,739 L 309,1346 659,739 1358,739 Z"/>
  </g>
  <g id="bullet-char-template(10132)" transform="scale(0.00048828125,-0.00048828125)">
   <path d="M 2015,739 L 1276,0 717,0 1260,543 174,543 174,936 1260,936 717,1481 1274,1481 2015,739 Z"/>
  </g>
  <g id="bullet-char-template(10007)" transform="scale(0.00048828125,-0.00048828125)">
   <path d="M 0,-2 C -7,14 -16,27 -25,37 L 356,567 C 262,823 215,952 215,954 215,979 228,992 255,992 264,992 276,990 289,987 310,991 331,999 354,1012 L 381,999 492,748 772,1049 836,1024 860,1049 C 881,1039 901,1025 922,1006 886,937 835,863 770,784 769,783 710,716 594,584 L 774,223 C 774,196 753,168 711,139 L 727,119 C 717,90 699,76 672,76 641,76 570,178 457,381 L 164,-76 C 142,-110 111,-127 72,-127 30,-127 9,-110 8,-76 1,-67 -2,-52 -2,-32 -2,-23 -1,-13 0,-2 Z"/>
  </g>
  <g id="bullet-char-template(10004)" transform="scale(0.00048828125,-0.00048828125)">
   <path d="M 285,-33 C 182,-33 111,30 74,156 52,228 41,333 41,471 41,549 55,616 82,672 116,743 169,778 240,778 293,778 328,747 346,684 L 369,508 C 377,444 397,411 428,410 L 1163,1116 C 1174,1127 1196,1133 1229,1133 1271,1133 1292,1118 1292,1087 L 1292,965 C 1292,929 1282,901 1262,881 L 442,47 C 390,-6 338,-33 285,-33 Z"/>
  </g>
  <g id="bullet-char-template(9679)" transform="scale(0.00048828125,-0.00048828125)">
   <path d="M 813,0 C 632,0 489,54 383,161 276,268 223,411 223,592 223,773 276,916 383,1023 489,1130 632,1184 813,1184 992,1184 1136,1130 1245,1023 1353,916 1407,772 1407,592 1407,412 1353,268 1245,161 1136,54 992,0 813,0 Z"/>
  </g>
  <g id="bullet-char-template(8226)" transform="scale(0.00048828125,-0.00048828125)">
   <path d="M 346,457 C 273,457 209,483 155,535 101,586 74,649 74,723 74,796 101,859 155,911 209,963 273,989 346,989 419,989 480,963 531,910 582,859 608,796 608,723 608,648 583,586 532,535 482,483 420,457 346,457 Z"/>
  </g>
  <g id="bullet-char-template(8211)" transform="scale(0.00048828125,-0.00048828125)">
   <path d="M -4,459 L 1135,459 1135,606 -4,606 -4,459 Z"/>
  </g>
  <g id="bullet-char-template(61548)" transform="scale(0.00048828125,-0.00048828125)">
   <path d="M 173,740 C 173,903 231,1043 346,1159 462,1274 601,1332 765,1332 928,1332 1067,1274 1183,1159 1299,1043 1357,903 1357,740 1357,577 1299,437 1183,322 1067,206 928,148 765,148 601,148 462,206 346,322 231,437 173,577 173,740 Z"/>
  </g>
 </defs>
 <defs class="TextEmbeddedBitmaps"/>
 <g>
  <g id="id2" class="Master_Slide">
   <g id="bg-id2" class="Background"/>
   <g id="bo-id2" class="BackgroundObjects"/>
  </g>
 </g>
 <g class="SlideGroup">
  <g>
   <g id="container-id1">
    <g id="id1" class="Slide" clip-path="url(#presentation_clip_path)">
     <g class="Page">
      <g class="com.sun.star.drawing.ClosedBezierShape">
       <g id="id3">
        <rect class="BoundingBox" stroke="none" fill="none" x="0" y="0" width="813" height="813"/>
        <path fill="rgb(255,255,255)" stroke="none" d="M 406,812 C 331,812 268,795 203,758 138,721 92,674 54,609 17,545 0,481 0,406 0,331 17,268 54,203 92,138 138,92 203,54 268,17 331,0 406,0 481,0 545,17 609,54 674,92 721,138 758,203 795,268 812,331 812,406 812,481 795,544 758,609 720,674 674,720 609,758 544,795 481,812 406,812 Z M 406,33 C 338,33 279,49 220,83 160,118 118,160 83,220 49,279 33,338 33,406 33,475 49,533 83,593 118,652 160,695 220,729 279,763 338,779 406,779 475,779 533,763 593,729 652,695 695,652 729,593 763,533 779,475 779,406 779,338 763,279 729,220 695,160 652,118 592,83 533,49 475,33 406,33 Z M 508,618 C 506,618 504,617 503,616 501,615 499,614 498,612 497,610 497,608 497,606 497,604 497,602 498,600 499,599 500,598 502,597 L 610,519 164,519 164,519 C 162,519 160,519 158,518 156,517 155,515 154,513 153,512 152,510 152,508 152,506 153,504 154,502 155,500 156,499 158,498 160,497 162,496 164,496 L 164,496 614,496 502,417 C 500,416 499,415 499,413 498,411 497,410 497,407 497,405 498,404 499,402 500,400 501,399 503,397 505,396 507,396 509,396 511,396 513,396 514,397 515,398 515,398 515,398 L 655,497 C 656,498 657,499 658,501 659,503 659,504 659,507 659,509 659,511 658,512 657,514 656,515 655,516 L 515,615 C 515,616 514,616 514,616 512,617 510,618 508,618 Z M 304,417 C 302,417 300,416 298,415 L 297,415 158,315 C 156,314 155,313 154,312 153,310 153,308 153,306 153,304 153,302 154,300 155,299 156,297 158,296 L 297,197 298,197 C 299,196 301,195 303,195 306,195 307,196 309,197 311,198 312,199 313,201 314,203 315,205 315,207 315,209 314,211 313,212 313,214 312,215 311,216 L 201,293 648,293 C 650,294 652,294 653,295 655,296 656,297 657,299 659,301 659,303 659,305 659,307 659,309 657,311 656,313 655,314 653,315 652,316 650,316 648,317 L 199,317 311,396 C 312,397 313,398 314,399 315,401 315,403 315,405 315,407 315,409 314,411 313,413 311,414 310,415 308,416 306,417 304,417 Z"/>
       </g>
      </g>
     </g>
    </g>
   </g>
  </g>
 </g>
</svg>