<?xml version="1.0" encoding="UTF-8"?>
<!DOCTYPE svg PUBLIC "-//W3C//DTD SVG 1.1//EN" "http://www.w3.org/Graphics/SVG/1.1/DTD/svg11.dtd">
<svg version="1.2" width="9.88mm" height="9.88mm" viewBox="0 0 988 988" preserveAspectRatio="xMidYMid" fill-rule="evenodd" stroke-width="28.222" stroke-linejoin="round" xmlns="http://www.w3.org/2000/svg" xmlns:ooo="http://xml.openoffice.org/svg/export" xmlns:xlink="http://www.w3.org/1999/xlink" xmlns:presentation="http://sun.com/xmlns/staroffice/presentation" xmlns:smil="http://www.w3.org/2001/SMIL20/" xmlns:anim="urn:oasis:names:tc:opendocument:xmlns:animation:1.0" xml:space="preserve">
 <defs class="ClipPathGroup">
  <clipPath id="presentation_clip_path" clipPathUnits="userSpaceOnUse">
   <rect x="0" y="0" width="988" height="988"/>
  </clipPath>
  <clipPath id="presentation_clip_path_shrink" clipPathUnits="userSpaceOnUse">
   <rect x="0" y="0" width="987" height="987"/>
  </clipPath>
 </defs>
 <defs class="TextShapeIndex">
  <g ooo:slide="id1" ooo:id-list="id3"/>
 </defs>
 <defs class="EmbeddedBulletChars">
  <g id="bullet-char-template(57356)" transform="scale(0.00048828125,-0.00048828125)">
   <path d="M 580,1141 L 1163,571 580,0 -4,571 580,1141 Z"/>
  </g>
  <g id="bullet-char-template(57354)" transform="scale(0.00048828125,-0.00048828125)">
   <path d="M 8,1128 L 1137,1128 1137,0 8,0 8,1128 Z"/>
  </g>
  <g id="bullet-char-template(10146)" transform="scale(0.00048828125,-0.00048828125)">
   <path d="M 174,0 L 602,739 174,1481 1456,739 174,0 Z M 1358,739 L 309,1346 659,739 1358,739 Z"/>
  </g>
  <g id="bullet-char-template(10132)" transform="scale(0.00048828125,-0.00048828125)">
   <path d="M 2015,739 L 1276,0 717,0 1260,543 174,543 174,936 1260,936 717,1481 1274,1481 2015,739 Z"/>
  </g>
  <g id="bullet-char-template(10007)" transform="scale(0.00048828125,-0.00048828125)">
   <path d="M 0,-2 C -7,14 -16,27 -25,37 L 356,567 C 262,823 215,952 215,954 215,979 228,992 255,992 264,992 276,990 289,987 310,991 331,999 354,1012 L 381,999 492,748 772,1049 836,1024 860,1049 C 881,1039 901,1025 922,1006 886,937 835,863 770,784 769,783 710,716 594,584 L 774,223 C 774,196 753,168 711,139 L 727,119 C 717,90 699,76 672,76 641,76 570,178 457,381 L 164,-76 C 142,-110 111,-127 72,-127 30,-127 9,-110 8,-76 1,-67 -2,-52 -2,-32 -2,-23 -1,-13 0,-2 Z"/>
  </g>
  <g id="bullet-char-template(10004)" transform="scale(0.00048828125,-0.00048828125)">
   <path d="M 285,-33 C 182,-33 111,30 74,156 52,228 41,333 41,471 41,549 55,616 82,672 116,743 169,778 240,778 293,778 328,747 346,684 L 369,508 C 377,444 397,411 428,410 L 1163,1116 C 1174,1127 1196,1133 1229,1133 1271,1133 1292,1118 1292,1087 L 1292,965 C 1292,929 1282,901 1262,881 L 442,47 C 390,-6 338,-33 285,-33 Z"/>
  </g>
  <g id="bullet-char-template(9679)" transform="scale(0.00048828125,-0.00048828125)">
   <path d="M 813,0 C 632,0 489,54 383,161 276,268 223,411 223,592 223,773 276,916 383,1023 489,1130 632,1184 813,1184 992,1184 1136,1130 1245,1023 1353,916 1407,772 1407,592 1407,412 1353,268 1245,161 1136,54 992,0 813,0 Z"/>
  </g>
  <g id="bullet-char-template(8226)" transform="scale(0.00048828125,-0.00048828125)">
   <path d="M 346,457 C 273,457 209,483 155,535 101,586 74,649 74,723 74,796 101,859 155,911 209,963 273,989 346,989 419,989 480,963 531,910 582,859 608,796 608,723 608,648 583,586 532,535 482,483 420,457 346,457 Z"/>
  </g>
  <g id="bullet-char-template(8211)" transform="scale(0.00048828125,-0.00048828125)">
   <path d="M -4,459 L 1135,459 1135,606 -4,606 -4,459 Z"/>
  </g>
  <g id="bullet-char-template(61548)" transform="scale(0.00048828125,-0.00048828125)">
   <path d="M 173,740 C 173,903 231,1043 346,1159 462,1274 601,1332 765,1332 928,1332 1067,1274 1183,1159 1299,1043 1357,903 1357,740 1357,577 1299,437 1183,322 1067,206 928,148 765,148 601,148 462,206 346,322 231,437 173,577 173,740 Z"/>
  </g>
 </defs>
 <defs class="TextEmbeddedBitmaps"/>
 <g>
  <g id="id2" class="Master_Slide">
   <g id="bg-id2" class="Background"/>
   <g id="bo-id2" class="BackgroundObjects"/>
  </g>
 </g>
 <g class="SlideGroup">
  <g>
   <g id="container-id1">
    <g id="id1" class="Slide" clip-path="url(#presentation_clip_path)">
     <g class="Page">
      <g class="com.sun.star.drawing.ClosedBezierShape">
       <g id="id3">
        <rect class="BoundingBox" stroke="none" fill="none" x="0" y="0" width="990" height="990"/>
        <path fill="rgb(27,176,104)" stroke="none" d="M 989,495 L 989,494 C 989,403 968,326 923,247 877,168 820,112 742,66 663,21 585,0 494,0 403,0 326,21 247,66 168,112 112,168 66,247 21,326 0,403 0,494 0,585 21,663 66,742 72,751 77,759 83,769 L 83,769 87,774 C 90,778 93,782 96,787 97,788 98,790 100,792 103,797 108,802 112,807 L 115,811 115,811 C 135,835 154,854 178,874 L 182,877 C 187,881 192,885 197,889 L 203,894 C 208,897 213,901 217,904 220,906 223,908 225,909 232,914 239,918 246,922 251,925 256,928 261,931 264,932 267,934 270,935 276,938 281,941 287,943 L 295,947 C 301,950 308,952 314,955 316,956 318,957 320,957 339,964 355,969 374,974 375,975 376,975 377,975 385,977 393,979 401,980 L 408,982 C 415,983 422,984 429,985 L 437,986 C 444,987 451,987 458,988 461,988 463,988 466,988 475,989 485,989 494,989 504,989 513,989 523,988 525,988 528,988 530,988 538,987 544,987 551,986 554,985 557,985 559,985 566,984 574,983 581,981 L 587,980 C 596,979 604,977 612,975 L 614,974 C 634,969 650,964 669,957 L 675,955 C 681,952 688,950 694,947 697,946 699,944 702,943 708,941 713,938 718,935 721,934 724,932 727,931 733,928 737,925 742,922 749,918 756,914 763,909 766,908 769,906 771,904 776,901 781,897 786,894 L 792,889 C 797,885 802,881 807,877 L 811,874 C 835,854 854,835 874,811 L 877,807 C 881,802 885,797 889,792 890,790 892,788 893,787 896,782 899,778 902,774 L 906,769 906,769 C 912,759 917,751 923,741 968,662 989,586 989,495 Z M 956,495 L 956,495 C 956,578 937,648 897,720 891,703 885,689 876,673 855,637 830,611 794,591 758,570 723,561 681,561 L 681,561 583,561 583,561 C 582,561 581,560 580,560 579,559 578,559 577,558 577,557 577,556 577,555 L 577,544 C 577,543 577,542 578,541 578,540 579,540 580,539 580,539 581,539 581,538 687,498 753,333 740,217 735,183 726,154 708,124 695,101 680,82 659,64 L 659,64 C 683,73 703,82 725,95 798,138 851,191 894,264 936,338 956,410 956,495 Z M 866,768 L 862,774 C 858,778 854,783 851,788 L 849,789 C 835,806 822,820 806,834 L 804,837 C 799,841 794,845 789,849 L 785,853 C 780,856 776,860 771,864 L 766,867 C 763,869 761,871 758,873 L 758,791 725,791 725,894 723,895 C 719,898 714,900 710,902 707,904 704,905 701,907 696,909 691,912 686,914 L 679,918 C 673,920 666,923 660,926 L 656,927 C 638,934 623,938 605,943 604,943 603,943 601,944 594,945 587,947 580,948 578,949 576,949 574,949 567,951 561,951 554,952 552,953 549,953 547,953 540,954 534,955 528,955 525,955 523,955 520,956 512,956 503,956 494,956 486,956 477,956 468,956 466,956 463,955 461,955 454,955 448,954 442,953 439,953 437,953 434,952 428,951 421,951 415,949 413,949 410,949 408,948 401,947 394,945 387,944 L 383,943 C 365,938 350,934 333,927 L 329,926 C 322,923 316,920 310,918 L 302,914 C 297,912 292,909 287,907 284,905 281,904 278,902 274,900 270,898 266,895 L 264,894 264,791 231,791 231,873 C 228,871 225,869 223,867 221,866 219,865 218,864 213,860 208,857 204,853 L 199,849 C 194,845 190,841 185,837 L 182,835 C 166,820 153,806 139,789 L 138,788 C 134,783 131,778 127,774 L 123,768 C 121,766 119,763 117,760 121,734 128,713 141,690 159,659 181,637 211,619 242,602 272,594 307,594 L 308,594 356,594 494,732 633,594 681,594 681,594 C 717,594 747,602 777,619 808,637 830,659 847,690 861,712 868,734 871,760 870,763 868,765 866,768 Z M 420,508 C 341,479 280,344 280,248 280,245 281,243 281,241 L 293,226 C 300,218 307,212 317,207 332,198 348,194 366,194 381,194 394,197 408,203 L 408,203 C 426,211 442,215 462,215 486,215 506,209 527,197 548,185 564,170 576,149 576,148 577,147 577,146 597,152 613,159 630,169 662,187 686,208 708,236 713,337 654,476 570,507 568,508 566,509 563,510 557,514 553,518 549,525 545,531 544,537 544,544 L 544,555 C 544,562 546,568 549,574 553,580 557,585 563,588 570,592 576,594 583,594 L 586,594 494,686 402,594 406,594 C 413,594 419,592 425,588 431,585 436,580 439,574 443,568 445,562 445,555 L 445,544 445,544 C 445,537 443,531 439,524 436,518 431,514 425,510 424,509 422,509 420,508 Z M 495,33 L 496,33 C 504,33 511,34 519,35 L 519,35 C 550,38 575,47 601,62 636,82 660,106 680,141 687,153 692,163 696,176 L 696,176 C 680,162 666,152 647,141 622,127 600,117 573,110 L 559,106 553,120 C 551,124 550,128 547,132 538,148 527,159 511,168 495,178 480,182 462,182 447,182 435,179 422,173 403,165 386,161 366,161 342,161 321,167 300,179 296,181 293,183 289,185 294,169 300,155 309,141 329,106 353,82 387,62 422,42 455,33 495,33 Z M 329,64 C 326,67 323,70 320,73 L 320,73 C 304,89 292,104 280,124 257,163 247,202 247,247 L 247,248 C 247,357 316,505 409,539 L 409,539 C 410,539 411,540 411,541 412,542 412,543 412,544 L 412,544 412,555 C 412,556 412,557 411,558 411,559 410,559 409,560 408,561 407,561 406,561 L 406,561 308,561 307,561 C 266,561 231,570 195,591 159,612 133,637 113,673 104,689 97,703 92,721 51,648 33,578 33,494 33,410 52,338 95,264 137,191 190,138 263,95 286,82 305,73 329,64 Z"/>
       </g>
      </g>
     </g>
    </g>
   </g>
  </g>
 </g>
</svg>