<?xml version="1.0" encoding="UTF-8"?>
<svg width="27px" height="26px" viewBox="0 0 27 26" version="1.1" xmlns="http://www.w3.org/2000/svg" xmlns:xlink="http://www.w3.org/1999/xlink">
    <!-- Generator: Sketch 43.1 (39012) - http://www.bohemiancoding.com/sketch -->
    <title>Fill 1</title>
    <desc>Created with Sketch.</desc>
    <defs></defs>
    <g id="Page-1" stroke="none" stroke-width="1" fill="none" fill-rule="evenodd">
        <path d="M2.8873,10.5962 L7.3033,15.5462 C7.4903,15.7552 7.5803,16.0332 7.5523,16.3112 L6.8883,22.9112 L12.9613,20.2412 C13.2173,20.1292 13.5103,20.1292 13.7663,20.2412 L19.8383,22.9112 L19.1753,16.3112 C19.1473,16.0332 19.2373,15.7552 19.4243,15.5452 L23.8403,10.5962 L17.3583,9.1872 C17.0843,9.1272 16.8473,8.9562 16.7063,8.7142 L13.3643,2.9842 L10.0203,8.7142 C9.8793,8.9562 9.6433,9.1272 9.3693,9.1872 L2.8873,10.5962 Z M5.7223,25.5172 C5.5143,25.5172 5.3083,25.4522 5.1343,25.3262 C4.8463,25.1172 4.6913,24.7712 4.7273,24.4172 L5.5183,16.5492 L0.2543,10.6482 C0.0173,10.3832 -0.0607,10.0122 0.0493,9.6742 C0.1583,9.3352 0.4403,9.0812 0.7873,9.0062 L8.5143,7.3262 L12.5003,0.4962 C12.6793,0.1892 13.0083,0.0002 13.3643,0.0002 C13.7193,0.0002 14.0483,0.1892 14.2273,0.4962 L18.2123,7.3262 L25.9403,9.0062 C26.2873,9.0812 26.5693,9.3352 26.6793,9.6742 C26.7883,10.0122 26.7103,10.3832 26.4733,10.6492 L21.2093,16.5492 L22.0003,24.4172 C22.0353,24.7712 21.8803,25.1172 21.5933,25.3262 C21.3043,25.5352 20.9283,25.5762 20.6023,25.4322 L13.3643,22.2492 L6.1243,25.4322 C5.9953,25.4892 5.8593,25.5172 5.7223,25.5172 L5.7223,25.5172 Z" id="Fill-1" fill="#1BB168"></path>
    </g>
</svg>